<svg width="374" height="354" viewBox="0 0 374 354" fill="none" xmlns="http://www.w3.org/2000/svg">
<path d="M307.933 58.3634C273.956 57.179 241.598 46.2435 210.717 34.266C179.836 22.2885 149.208 9.01629 116.045 2.67173C94.6905 -1.40954 70.2956 -1.9834 53.1092 9.43406C36.5714 20.4154 31.2259 39.3756 28.3554 56.9632C26.1933 70.1986 24.9236 84.1319 30.8441 96.518C34.9567 105.121 42.2573 112.352 47.3083 120.592C64.8903 149.258 52.4697 184.612 33.4202 212.607C24.4866 225.737 14.1269 238.265 7.23581 252.244C0.344691 266.224 -2.84326 282.241 3.18762 296.5C9.1679 310.631 23.4056 321.25 38.8347 328.714C70.1714 343.864 107.097 348.221 143.103 350.681C222.811 356.122 302.942 353.767 382.862 351.407C412.437 350.535 442.145 349.649 471.237 345.085C487.397 342.551 504.077 338.529 515.808 328.815C530.699 316.489 534.388 295.614 524.41 280.152C507.675 254.223 461.387 247.787 449.698 219.957C443.258 204.642 449.873 187.578 459.23 173.373C479.305 142.899 512.951 116.167 514.727 81.3314C515.941 57.4085 499.767 33.4534 474.756 22.1094C448.534 10.2466 412.193 11.7387 392.849 31.3783C372.934 51.624 337.936 59.4055 307.933 58.3634Z" fill="#F3F4F3"/>
</svg>
