<svg width="227" height="213" viewBox="0 0 227 213" fill="none" xmlns="http://www.w3.org/2000/svg">
<path d="M76.585 79.615C80.721 85.739 85.0411 97.888 85.0411 97.888C85.0411 97.888 83.248 104.724 75.2351 109.941C71.585 112.305 68.615 113.376 66.325 113.818H66.3141C63.5821 114.348 61.832 113.968 61.086 113.818C59.715 113.548 58.376 113.007 58.376 113.007C58.376 113.007 52.372 107.694 49.197 104.994C46.032 102.294 36.4421 92.672 36.4421 92.672C35.4591 92.305 30.0601 102.747 29.9631 103.201C29.9521 103.277 30.1251 103.428 30.4481 103.643H30.4591C32.0681 104.659 37.284 107.013 40.9461 108.06C45.3631 109.313 49.229 109.14 49.229 109.14L50.6231 112.024L51.6601 114.173C37.1881 118.558 28.5271 117.597 23.3971 116.063C18.2671 114.541 15.2111 108.957 15.5671 102.564C15.5781 102.402 15.5881 102.239 15.5991 102.078C16.0751 95.64 19.0661 85.111 22.0471 78.178C23.4621 74.873 25.4701 71.958 27.4361 69.593C27.4361 69.593 27.4361 69.593 27.4471 69.593C29.6931 66.861 31.8751 64.873 32.9981 63.902C37.2631 60.198 41.3241 57.898 44.8561 56.418C50.3321 54.106 54.5541 53.783 56.25 53.34C58.4431 52.768 62.438 48.285 65.073 44.7C65.797 43.728 66.412 42.832 66.866 42.086C69.026 38.576 69.836 33.9 69.6521 32.194C69.479 30.477 66.1421 26.254 62.9021 23.284C59.662 20.314 55.072 16.534 55.072 16.534C55.072 16.534 54.7911 14.407 54.4671 12.387V12.376C54.3481 11.566 54.207 10.789 54.089 10.151C53.635 7.90498 53.819 6.63098 53.819 6.63098C76.7681 10.767 84.868 23.284 85.9481 27.064C87.0281 30.844 84.231 43.264 79.8241 52.076C75.4181 60.899 69.7481 68.46 69.7481 68.46C69.7481 68.46 72.449 73.502 76.585 79.615Z" fill="#CE5442"/>
<path d="M44.855 56.417C44.445 58.847 44.012 61.806 39.369 64.948C36.054 67.194 30.999 68.718 27.446 69.593C29.692 66.861 31.874 64.873 32.997 63.902C37.263 60.198 41.324 57.898 44.855 56.417Z" fill="#AE1E45"/>
<path d="M51.6591 114.174C37.1871 118.559 28.5261 117.598 23.3961 116.064C18.2661 114.542 15.2101 108.958 15.5661 102.565C15.5771 102.403 15.5871 102.24 15.5981 102.079C17.0891 106.054 20.4801 110.438 24.7461 111.518C29.9511 112.868 42.8251 115.34 50.6221 112.025L51.6591 114.174Z" fill="#AE1E45"/>
<path d="M66.314 113.818C63.582 114.348 61.832 113.968 61.086 113.818C59.715 113.548 58.376 113.007 58.376 113.007C58.376 113.007 52.372 107.694 49.197 104.994C46.032 102.294 36.442 92.672 36.442 92.672C35.459 92.305 30.06 102.747 29.963 103.201C29.952 103.277 30.125 103.428 30.448 103.643L29.249 103.417C29.249 103.417 30.145 98.557 31.496 94.917C32.847 91.277 36.172 90.597 36.172 90.597C36.172 90.597 40.546 93.697 49.229 99.4C56.897 104.433 64.619 112.09 66.314 113.818Z" fill="#AE1E45"/>
<path d="M72.8051 32.745C72.8051 36.007 71.0231 41.687 65.0721 44.7C65.7961 43.728 66.4111 42.832 66.8651 42.086C69.0251 38.576 69.8351 33.9 69.6511 32.194C69.4781 30.477 66.1411 26.254 62.9011 23.284C59.6611 20.314 55.0711 16.534 55.0711 16.534C55.0711 16.534 54.7901 14.407 54.4661 12.387C58.4411 13.845 63.7421 17.506 66.6691 21.037C69.8351 24.86 72.8051 29.148 72.8051 32.745Z" fill="#AE1E45"/>
<path d="M91.348 160.839C90.808 174.027 89.005 207.235 89.005 207.235L86.996 208.38L86.488 208.672C86.488 208.672 79.717 190.107 77.935 181.857C76.153 173.606 78.745 166.824 78.745 166.824C78.745 166.824 78.659 158.994 77.752 149.814C76.856 140.635 75.052 125.968 73.432 128.215C71.812 130.472 49.402 169.351 49.402 169.351C49.402 169.351 50.309 175.734 42.382 185.097C34.466 194.459 19.702 208.672 19.702 208.672C19.173 207.905 18.212 207.289 17.618 206.966C17.305 206.793 17.1 206.695 17.1 206.695C17.1 206.695 26.215 186.953 34.056 170.096C38.678 160.159 42.858 151.228 44.456 147.923C48.775 139.013 58.376 113.007 58.376 113.007C58.376 113.007 59.715 113.548 61.086 113.818C61.659 113.925 62.836 114.185 64.596 114.055C67.037 113.871 70.59 112.953 75.234 109.941C83.247 104.724 85.04 97.888 85.04 97.888C85.04 97.888 89.36 103.644 90.353 106.884C91.346 110.124 92.06 117.511 92.157 122.814C92.244 128.127 91.888 147.654 91.348 160.839Z" fill="#484748"/>
<path d="M64.5971 114.055C62.6101 118.894 57.5671 130.914 52.2961 140.677C48.8621 147.047 40.9881 159.447 34.0551 170.096C38.6771 160.159 42.8571 151.228 44.4551 147.923C48.7741 139.013 58.3751 113.007 58.3751 113.007C58.3751 113.007 59.7141 113.548 61.0851 113.818C61.6601 113.925 62.8371 114.185 64.5971 114.055Z" fill="#686969"/>
<path d="M86.996 208.379L86.488 208.671C86.488 208.671 79.717 190.106 77.935 181.856C76.153 173.605 78.745 166.823 78.745 166.823C78.745 166.823 78.659 158.993 77.752 149.813C76.856 140.634 75.052 125.967 73.432 128.214C71.812 130.471 49.402 169.35 49.402 169.35C49.402 169.35 50.309 175.733 42.382 185.096C34.466 194.458 19.702 208.671 19.702 208.671C19.173 207.904 18.212 207.288 17.618 206.965C19.541 204.999 26.323 197.98 32.166 191.436C39.056 183.747 46.076 167.416 46.076 167.416C46.076 167.416 61.887 143.517 66.671 135.957C71.456 128.397 74.426 125.157 74.426 125.157C74.426 125.157 80.095 139.736 81.046 152.633C81.986 165.516 83.465 183.519 84.956 193.616C85.808 199.417 86.5311 204.827 86.996 208.379Z" fill="#686969"/>
<path d="M55.072 16.081C54.716 15.811 52.642 14.731 49.942 14.817C47.242 14.914 40.946 12.754 40.493 11.577C40.385 11.307 40.481 11.112 40.676 10.983C41.324 10.562 43.106 10.767 43.106 10.767C43.106 10.767 37.123 8.16399 37.328 7.17099C37.523 6.17699 41.756 7.89399 41.756 7.89399C41.756 7.89399 39.046 6.00399 39.369 5.28099C39.682 4.55699 43.192 6.27499 43.192 6.27499C43.192 6.27499 41.572 4.97899 42.48 4.38499C43.376 3.78099 49.586 4.92499 53.82 6.63199C53.82 6.63199 53.453 8.08999 54.09 10.152C54.252 10.703 54.403 11.373 54.533 12.064C54.877 13.985 55.072 16.081 55.072 16.081Z" fill="#F2B6AC"/>
<path d="M55.072 16.081C54.716 15.811 52.642 14.731 49.942 14.817C47.242 14.914 40.946 12.754 40.493 11.577C40.385 11.307 40.481 11.112 40.676 10.983C45.061 13.359 50.547 12.701 54.532 12.063C54.877 13.985 55.072 16.081 55.072 16.081Z" fill="#F6958F"/>
<path d="M42.264 66.385C41.875 67.314 38.764 68.102 37.318 67.11C36.616 66.634 34.963 65.317 33.505 64.053C32.522 63.221 31.626 62.401 31.14 61.861C34.336 61.342 37.318 58.167 38.613 56.256C38.938 56.569 39.876 57.8 40.762 59.388C41.982 61.569 43.084 64.419 42.264 66.385Z" fill="#F2B6AC"/>
<path d="M40.762 59.387C39.283 61.321 35.513 63.167 33.505 64.053C32.522 63.221 31.626 62.401 31.14 61.861C34.336 61.342 37.318 58.167 38.613 56.256C38.938 56.569 39.876 57.799 40.762 59.387Z" fill="#F6958F"/>
<path d="M39.283 54.042C39.099 55.198 38.613 56.515 37.782 57.747C36.789 59.204 35.309 60.532 33.236 61.31C32.599 61.547 31.897 61.742 31.141 61.861C31.077 61.872 31.022 61.882 30.958 61.893C30.536 61.957 30.137 61.99 29.748 62.001C23.689 62.238 20.428 57.476 20.428 57.476C17.825 58.382 14.445 56.514 14.402 55.143C14.316 52.562 17.037 54.16 17.404 54.203C17.415 54.214 17.447 54.214 17.458 54.214C17.404 54.128 15.104 49.797 13.948 47.13C13.765 46.709 13.624 46.266 13.527 45.834C13.451 45.37 13.386 44.927 13.343 44.484C13.268 43.188 13.538 42.022 13.991 41.406C14.164 41.169 14.358 41.007 14.574 40.952C15.751 40.618 18.807 37.324 19.974 35.607C21.151 33.9 23.916 34.397 27.339 35.66C30.687 36.891 34.316 40.228 34.457 40.358L34.468 40.369C34.468 40.369 34.587 39.289 34.651 38.976C34.759 38.663 34.921 38.372 35.192 38.22C36.002 37.766 39.241 42.086 38.971 43.706C38.701 45.326 36.811 45.326 36.811 45.326C36.811 45.326 38.517 49.203 39.241 51.903C39.391 52.476 39.412 53.221 39.283 54.042Z" fill="#F1B6AC"/>
<path d="M33.235 61.31C32.598 61.547 31.896 61.742 31.14 61.861C31.076 61.872 31.021 61.882 30.957 61.893C30.535 61.957 30.136 61.99 29.747 62.001C23.688 62.238 20.427 57.476 20.427 57.476C17.824 58.382 14.444 56.514 14.401 55.143C14.315 52.562 17.036 54.16 17.403 54.203C17.414 54.214 17.446 54.214 17.457 54.214C17.403 54.128 15.103 49.797 13.947 47.13C13.764 46.709 13.623 46.266 13.526 45.834C13.45 45.37 13.385 44.927 13.342 44.484C13.267 43.188 13.537 42.022 13.99 41.406C14.876 44.225 16.96 49.258 21.29 54.215C24.941 58.405 29.336 60.597 33.235 61.31Z" fill="#F6958F"/>
<path d="M19.707 208.675C19.707 208.675 17.548 205.524 14.937 205.975C12.326 206.426 8.54602 208.675 8.54602 208.675C8.54602 208.675 15.927 209.575 19.707 208.675Z" fill="url(#paint0_linear)"/>
<path d="M86.485 208.675C86.485 208.675 89.275 205.797 92.784 205.93C96.294 206.065 97.734 209.075 97.734 209.075C97.734 209.075 89.905 208.764 86.485 208.675Z" fill="url(#paint1_linear)"/>
<path d="M16.1061 48.48C15.7551 48.304 18.4231 43.639 19.4181 44.16C20.9671 44.97 17.0521 48.952 16.1061 48.48Z" fill="#D3CCC0"/>
<path d="M28.051 37.536C27.487 36.835 23.709 38.907 23.908 39.948C24.107 40.99 25.55 40.428 26.733 39.429C27.917 38.429 28.051 37.536 28.051 37.536Z" fill="#D3CCC0"/>
<path d="M33.116 50.553C31.312 50.996 27.262 54.419 27.338 56.881C27.381 58.696 28.926 60.943 29.747 62.001C30.136 61.989 30.535 61.957 30.957 61.893C36.335 61.116 38.819 57.043 39.283 54.041C37.324 51.72 34.477 50.208 33.116 50.553Z" fill="#441615"/>
<path d="M17.4551 54.214C17.4541 54.214 17.4331 54.211 17.4031 54.207C17.4191 54.209 17.4441 54.216 17.4571 54.217L17.4551 54.214Z" fill="#F2B6AC"/>
<path d="M17.4551 54.214C17.4541 54.214 17.4331 54.211 17.4031 54.207C17.4191 54.209 17.4441 54.216 17.4571 54.217L17.4551 54.214Z" fill="url(#paint2_linear)"/>
<path d="M34.466 40.367C34.466 40.367 34.585 39.293 34.65 38.975C34.435 39.61 34.466 40.359 34.466 40.367Z" fill="#F2B6AC"/>
<path d="M34.466 40.367C34.466 40.367 34.585 39.293 34.65 38.975C34.435 39.61 34.466 40.359 34.466 40.367Z" fill="url(#paint3_linear)"/>
<path d="M22.6425 49.2753C22.9802 48.9539 22.6483 48.0571 21.9013 47.2722C21.1543 46.4872 20.275 46.1114 19.9373 46.4327C19.5997 46.7541 19.9315 47.6509 20.6785 48.4359C21.4256 49.2208 22.3049 49.5966 22.6425 49.2753Z" fill="#02292E"/>
<path d="M30.1756 44.0029C30.5133 43.6815 30.1814 42.7847 29.4344 41.9998C28.6874 41.2148 27.8081 40.839 27.4704 41.1603C27.1327 41.4817 27.4646 42.3785 28.2116 43.1635C28.9586 43.9484 29.8379 44.3242 30.1756 44.0029Z" fill="#02292E"/>
<path d="M28.736 51.102C28.675 51.102 28.621 51.057 28.612 50.995C28.602 50.927 28.649 50.863 28.717 50.853C30.607 50.576 31.214 49.664 31.347 49.412C30.854 48.872 28.98 47.085 26.036 44.346L25.89 44.21C25.84 44.163 25.837 44.084 25.884 44.033C25.931 43.982 26.01 43.98 26.061 44.027L26.206 44.162C29.278 47.019 31.19 48.847 31.59 49.308C31.62 49.343 31.629 49.391 31.613 49.433C31.593 49.487 31.103 50.756 28.754 51.1C28.748 51.102 28.742 51.102 28.736 51.102Z" fill="#02292E"/>
<path d="M18.1991 56.381C18.1671 56.381 18.1361 56.369 18.1121 56.346C17.2701 55.519 15.5301 55.153 15.5131 55.149C15.4461 55.135 15.4021 55.069 15.4161 55.002C15.4301 54.935 15.4941 54.894 15.5641 54.905C15.6381 54.92 17.3941 55.29 18.2871 56.168C18.3361 56.217 18.3371 56.296 18.2891 56.345C18.2641 56.369 18.2311 56.381 18.1991 56.381Z" fill="#02292E"/>
<path d="M36.491 43.407C36.456 43.407 36.421 43.392 36.397 43.364C35.492 42.32 35.75 40.56 35.761 40.485C35.771 40.417 35.822 40.369 35.904 40.381C35.972 40.391 36.019 40.455 36.008 40.524C36.006 40.541 35.758 42.245 36.586 43.201C36.631 43.253 36.626 43.332 36.574 43.377C36.549 43.397 36.52 43.407 36.491 43.407Z" fill="#02292E"/>
<path d="M52.3 100.183C52.3 100.183 69.296 87.628 71.185 83.444C71.185 83.444 79.959 94.784 81.039 100.183C81.039 100.183 74.474 109.228 65.472 110.713L52.3 100.183Z" stroke="#02292E" stroke-width="0.25" stroke-miterlimit="10" stroke-linecap="round" stroke-linejoin="round"/>
<path d="M29.246 56.649C29.246 56.649 33.026 54.46 34.466 52.749C34.466 52.749 36.168 54.795 34.106 56.649C32.466 58.124 29.246 56.649 29.246 56.649Z" fill="white"/>
<path d="M61.077 111.302C61.282 111.928 57.599 114.001 51.66 114.174C51.66 114.174 50.84 113.224 50.202 111.917C50.192 111.895 50.17 111.863 50.159 111.831C49.533 110.48 49.23 109.141 49.23 109.141C49.23 109.141 53.183 105.361 53.82 105.718C54.414 106.064 52.88 108.18 52.751 108.364C53.043 108.222 58.161 105.739 58.949 106.343C59.759 106.98 56.606 109.14 56.606 109.14C56.606 109.14 60.472 107.618 61.012 108.374C61.552 109.14 58.409 110.847 58.409 110.847C58.409 110.847 59.251 110.783 59.986 110.868C60.515 110.913 60.99 111.042 61.077 111.302Z" fill="#F2B6AC"/>
<path d="M61.077 111.302C61.282 111.928 57.599 114.001 51.66 114.174C51.66 114.174 50.84 113.224 50.202 111.917C52.46 111.992 56.337 111.906 59.987 110.868C60.515 110.913 60.99 111.042 61.077 111.302Z" fill="#F6958F"/>
<path d="M34.671 38.9C34.661 38.911 34.661 38.943 34.65 38.976C34.434 39.613 34.467 40.358 34.467 40.369L34.456 40.358C34.315 40.228 30.686 36.891 27.338 35.66C23.915 34.397 21.15 33.9 19.973 35.607C18.806 37.324 15.75 40.618 14.573 40.952C13.893 41.136 13.385 42.323 13.342 43.803C13.332 44.019 13.332 44.246 13.342 44.484C13.364 44.927 13.429 45.38 13.526 45.834C13.623 46.266 13.764 46.709 13.947 47.13C14.519 48.469 15.384 50.218 16.118 51.644C16.842 53.069 17.436 54.171 17.457 54.214C17.457 54.214 17.436 54.214 17.403 54.203C16.907 54.128 15.384 53.566 13.202 51.655C10.955 49.668 6.88404 43.868 8.14704 38.285C8.26704 37.777 8.41705 37.281 8.60105 36.795C10.458 31.967 15.772 28.392 20.999 28.231C26.755 28.047 29.51 31.601 31.767 33.565C34.326 35.79 34.725 38.717 34.671 38.9Z" fill="#D3CCC0"/>
<path d="M17.457 54.214C17.457 54.214 17.436 54.214 17.403 54.203C16.907 54.128 15.384 53.566 13.202 51.655C10.955 49.668 6.88404 43.868 8.14704 38.285C8.26704 37.777 8.41705 37.281 8.60105 36.795C9.30305 38.965 10.697 41.935 13.342 43.803C13.332 44.019 13.332 44.246 13.342 44.484C13.364 44.927 13.429 45.38 13.526 45.834C13.623 46.266 13.764 46.709 13.947 47.13C14.519 48.469 15.384 50.218 16.118 51.644C16.841 53.069 17.435 54.171 17.457 54.214Z" fill="#C1BAAF"/>
<path d="M0 209.162C0 209.162 13.3885 215.221 108 209.633C108 209.632 48.9426 206.297 0 209.162Z" fill="#D8DAD9"/>
<path d="M145.992 209.288C145.992 209.288 153.869 215.303 209.533 209.756C209.533 209.755 174.787 206.444 145.992 209.288Z" fill="#D8DAD9"/>
<path d="M141.532 52.128C143.136 53.399 145.251 54.924 149.46 55.913C152.34 56.589 156.196 57.014 161.541 56.94C172.313 56.792 180.597 55.896 184.918 53.439C185.883 52.893 186.647 52.27 187.202 51.557C190.24 47.654 188.791 44.42 185.99 42.928C183.19 41.435 180.707 38.877 181.353 37.099C181.999 35.322 182.049 31.346 181.374 28.489C180.986 26.849 180.176 25.334 179.436 24.195C178.621 22.948 177.892 22.156 177.892 22.156C178.336 21.653 178.895 20.374 178.936 18.944C178.978 17.457 178.457 15.806 176.661 14.698C173.137 12.526 168.223 10.221 161.149 11.968C154.078 13.716 152.017 18.877 150.621 21.03C149.225 23.183 148.781 23.958 146.22 24.449C143.657 24.941 140.563 27.089 140.283 31.198C140.002 35.307 142.262 38.223 142.674 40.084C143.084 41.946 142.557 43.778 141.138 45.229C139.719 46.68 138.828 49.988 141.532 52.128Z" fill="url(#paint4_linear)"/>
<path opacity="0.7" d="M149.459 55.914C152.339 56.59 156.195 57.015 161.54 56.941C172.312 56.793 180.596 55.897 184.917 53.44C181.511 53.809 176.45 54.336 174.348 52.639C171.524 50.358 171.387 48.136 174.473 44.641C177.558 41.146 178.026 33.751 176.363 29.352C176.363 29.352 174.255 25.644 177.986 25.071C178.625 24.974 179.093 24.654 179.436 24.196C178.621 22.949 177.892 22.157 177.892 22.157C178.336 21.654 178.895 20.375 178.936 18.945C177.911 21.084 175.593 23.805 170.443 23.682C162.003 23.481 160.663 19.918 155.732 22.405C150.801 24.891 147.519 32.208 149.341 37.973C151.163 43.74 156.461 48.14 155.041 51.465C154.34 53.107 151.827 54.709 149.459 55.914Z" fill="#F8DABB"/>
<path d="M151.944 35.046C152.112 40.371 153.716 44.772 156.025 47.393C156.477 47.907 157.119 48.328 157.874 48.67C160.355 49.786 164.088 50.003 166.553 49.507C167.177 49.382 167.722 49.212 168.144 49C170.738 47.688 173.815 43.139 174.242 38.146C174.576 34.249 174.488 29.402 173.911 26.894C173.751 26.189 173.552 25.668 173.311 25.406C173.311 25.406 172.043 26.091 168.046 25.632C164.049 25.174 163.504 24.663 160.779 23.695C158.357 22.835 157.374 23.548 155.52 24.468C155.29 24.586 155.045 24.703 154.783 24.822C152.415 25.894 151.775 29.721 151.944 35.046Z" fill="#F2B6AC"/>
<path opacity="0.4" d="M155.52 24.469C158.036 24.365 161.264 24.87 163.239 26.136C166.186 28.024 170.786 28.13 173.91 26.894C173.75 26.189 173.551 25.668 173.31 25.406C173.31 25.406 172.042 26.091 168.045 25.632C164.048 25.174 163.503 24.663 160.778 23.695C158.357 22.835 157.374 23.549 155.52 24.469Z" fill="#F6958F"/>
<path d="M172.635 32.443C173.205 32.042 172.084 31.18 170.598 30.741C168.577 30.144 166.719 30.608 166.118 31.57C166.118 31.57 168.472 31.654 169.754 31.845C171.036 32.038 172.217 32.737 172.635 32.443Z" fill="#EFE2D5"/>
<path d="M160.706 32.125C160.718 32.008 159.89 30.867 157.276 30.724C154.662 30.582 154.271 32.088 154.522 32.32C154.775 32.553 155.69 32.175 157.83 32.114C159.968 32.051 160.706 32.125 160.706 32.125Z" fill="#EFE2D5"/>
<path d="M164.586 42.804C165.233 42.783 165.792 42.647 166.106 42.57C166.192 42.549 166.281 42.527 166.303 42.526H166.304C166.337 42.537 166.367 42.521 166.388 42.495C166.436 42.436 166.414 42.398 166.284 42.152C166.02 41.658 165.32 40.343 165.15 38.682C164.927 36.503 165.465 34.151 165.47 34.127C165.481 34.08 165.453 34.032 165.405 34.022C165.359 34.012 165.31 34.04 165.301 34.087C165.294 34.111 164.751 36.492 164.976 38.7C165.149 40.395 165.861 41.731 166.13 42.235C166.155 42.283 166.179 42.329 166.199 42.368C166.164 42.374 166.12 42.386 166.064 42.399C165.427 42.556 163.735 42.969 162.411 42.063C162.369 42.036 162.315 42.046 162.288 42.086C162.262 42.127 162.27 42.181 162.31 42.209C163.04 42.708 163.869 42.826 164.586 42.804Z" fill="#9A3222"/>
<path d="M163.606 46.611C164.248 46.591 164.931 46.424 165.652 46.111C165.718 46.083 165.76 46.062 165.78 46.057C165.829 46.047 165.858 45.998 165.847 45.952C165.835 45.905 165.787 45.876 165.741 45.887C165.713 45.893 165.672 45.911 165.582 45.95C163.983 46.646 162.584 46.597 161.422 45.805C161.384 45.778 161.327 45.788 161.301 45.828C161.275 45.868 161.284 45.923 161.324 45.949C162.008 46.416 162.772 46.637 163.606 46.611Z" fill="#F27179"/>
<path d="M168.679 37.393C169.11 37.393 169.46 36.6928 169.46 35.829C169.46 34.9652 169.11 34.265 168.679 34.265C168.248 34.265 167.898 34.9652 167.898 35.829C167.898 36.6928 168.248 37.393 168.679 37.393Z" fill="#1E1725"/>
<path d="M158.94 37.393C159.371 37.393 159.72 36.6928 159.72 35.829C159.72 34.9652 159.371 34.265 158.94 34.265C158.509 34.265 158.16 34.9652 158.16 35.829C158.16 36.6928 158.509 37.393 158.94 37.393Z" fill="#1E1725"/>
<path d="M138.395 45.424C138.395 45.424 137.911 46.275 135.575 47.813C135 48.192 134.31 48.613 133.489 49.074C129.338 51.402 126.065 52.219 126.065 52.219C126.065 52.219 121.6 47.753 119.336 44.167C117.07 40.581 116.628 30.076 117.07 25.169C117.775 17.37 120.719 7.93301 121.6 5.48001L126.068 4.84101L126.883 4.72601C126.883 4.72601 128.205 7.30501 129.023 11.959C129.84 16.614 129.904 28.063 129.714 31.9C129.526 35.737 130.405 37.058 132.609 39.071C134.811 41.084 138.395 45.424 138.395 45.424Z" fill="#F2B6AC"/>
<path d="M138.395 45.424C138.395 45.424 137.911 46.275 135.575 47.813C133.915 45.376 130.722 40.704 129.401 38.883C127.576 36.367 127.387 32.843 128.016 22.779C128.55 14.252 127.186 8.79701 126.068 4.84101L126.883 4.72601C126.883 4.72601 128.205 7.30501 129.023 11.959C129.84 16.614 129.904 28.063 129.714 31.9C129.526 35.737 130.405 37.058 132.609 39.071C134.811 41.084 138.395 45.424 138.395 45.424Z" fill="#F6958F"/>
<path d="M193.375 69.958C193.375 69.958 191.324 72.717 189.474 75.487C188.904 76.342 188.394 77.286 187.958 78.184C186.983 80.197 186.394 81.972 186.394 81.972L184.907 80.457L184.75 80.299L182.914 78.43C184.424 82.707 181.403 86.734 181.403 86.734C181.685 87.331 181.949 87.972 182.197 88.646C182.257 88.81 182.314 88.976 182.372 89.145C182.433 89.315 182.491 89.489 182.549 89.665C182.607 89.842 182.663 90.019 182.718 90.196C182.953 90.959 183.17 91.748 183.37 92.557C183.396 92.66 183.422 92.76 183.446 92.861C183.498 93.064 183.545 93.272 183.592 93.481C183.663 93.789 183.731 94.098 183.798 94.411C183.888 94.811 183.967 95.216 184.045 95.619C184.067 95.727 184.089 95.836 184.108 95.943C184.166 96.247 184.22 96.547 184.274 96.848C184.316 97.077 184.355 97.307 184.391 97.535C184.416 97.681 184.441 97.831 184.464 97.979C184.577 98.658 184.679 99.331 184.771 99.986C184.815 100.287 184.855 100.584 184.892 100.875C184.897 100.918 184.903 100.961 184.91 101.004C184.924 101.106 184.936 101.205 184.95 101.304C184.948 101.307 184.95 101.307 184.95 101.308C184.948 101.311 184.948 101.311 184.95 101.315C184.968 101.461 184.986 101.6 185.004 101.744C185.022 101.881 185.037 102.014 185.055 102.144C185.103 102.544 185.146 102.932 185.188 103.31C185.198 103.4 185.209 103.494 185.217 103.583C185.231 103.719 185.246 103.855 185.258 103.987C185.271 104.111 185.283 104.233 185.295 104.356C185.298 104.365 185.298 104.372 185.298 104.381C185.309 104.466 185.316 104.547 185.323 104.634C185.334 104.73 185.343 104.824 185.354 104.921C185.358 104.989 185.363 105.055 185.371 105.12C185.373 105.165 185.378 105.214 185.385 105.258C185.394 105.369 185.406 105.48 185.413 105.585C185.435 105.824 185.455 106.056 185.471 106.276C185.477 106.335 185.484 106.392 185.487 106.451C185.49 106.483 185.495 106.518 185.495 106.552C185.5 106.602 185.507 106.65 185.508 106.698C185.513 106.749 185.516 106.798 185.521 106.844C185.532 106.97 185.541 107.09 185.548 107.206C185.574 107.535 185.594 107.83 185.611 108.089C185.617 108.156 185.622 108.223 185.625 108.286C185.627 108.344 185.633 108.403 185.637 108.459C185.642 108.566 185.648 108.665 185.655 108.753C185.655 108.789 185.658 108.823 185.661 108.856C185.663 108.93 185.668 108.995 185.671 109.05C185.674 109.072 185.674 109.092 185.674 109.113C185.682 109.231 185.683 109.293 185.683 109.293C185.683 109.293 185.271 109.433 184.492 109.659C181.678 110.479 174.079 112.45 163.707 113.238C154.244 113.956 147.771 111.165 144.848 109.512C143.679 108.851 143.075 108.372 143.075 108.372C142.928 107.959 142.809 107.524 142.712 107.073C142.686 106.939 142.658 106.802 142.636 106.665C142.626 106.621 142.617 106.572 142.611 106.525C142.59 106.401 142.57 106.275 142.555 106.15C142.533 105.993 142.515 105.836 142.496 105.674C142.496 105.674 142.496 105.674 142.496 105.671C142.481 105.51 142.469 105.35 142.457 105.186C142.449 105.078 142.44 104.967 142.436 104.858C142.433 104.798 142.429 104.738 142.425 104.678C142.412 104.369 142.408 104.062 142.41 103.746C142.41 103.605 142.412 103.467 142.417 103.323V103.297C142.423 103.154 142.429 103.009 142.436 102.865C142.436 102.844 142.438 102.82 142.438 102.798C142.443 102.699 142.449 102.601 142.457 102.503C142.46 102.442 142.464 102.385 142.469 102.326C142.474 102.25 142.48 102.174 142.484 102.096C142.497 101.933 142.509 101.772 142.528 101.608C142.543 101.445 142.561 101.28 142.579 101.117C142.589 101.017 142.601 100.916 142.613 100.815C142.623 100.738 142.631 100.659 142.642 100.582C142.651 100.511 142.662 100.441 142.671 100.367C142.686 100.249 142.703 100.129 142.721 100.011C142.743 99.853 142.769 99.694 142.793 99.533C142.821 99.364 142.849 99.196 142.88 99.026C142.885 98.997 142.889 98.966 142.895 98.937C142.919 98.796 142.944 98.659 142.97 98.52C143.002 98.354 143.036 98.186 143.068 98.019C143.101 97.854 143.136 97.687 143.172 97.522C143.245 97.168 143.322 96.822 143.406 96.477C143.448 96.296 143.493 96.113 143.537 95.934C143.582 95.753 143.628 95.573 143.673 95.399C143.721 95.219 143.766 95.044 143.813 94.87C143.86 94.694 143.908 94.522 143.955 94.351C144.127 93.745 144.301 93.158 144.474 92.603C144.494 92.533 144.517 92.462 144.539 92.396C144.577 92.273 144.618 92.153 144.654 92.034C144.662 92.005 144.673 91.973 144.682 91.946C144.702 91.878 144.725 91.809 144.747 91.744C144.778 91.651 144.807 91.562 144.838 91.471C144.87 91.371 144.903 91.272 144.936 91.176C144.947 91.144 144.958 91.108 144.968 91.076C145.015 90.944 145.057 90.813 145.102 90.687C145.158 90.537 145.207 90.39 145.258 90.247C145.283 90.172 145.308 90.098 145.336 90.028C145.364 89.947 145.395 89.867 145.422 89.79C145.451 89.701 145.482 89.618 145.512 89.538C145.566 89.397 145.616 89.264 145.663 89.135C145.718 88.985 145.774 88.844 145.824 88.71C145.842 88.665 145.858 88.62 145.877 88.575C146.018 88.207 146.135 87.915 146.217 87.717C146.237 87.668 146.255 87.626 146.27 87.588C146.283 87.555 146.295 87.527 146.305 87.505C146.313 87.487 146.318 87.475 146.324 87.462C146.327 87.455 146.328 87.45 146.331 87.444C146.336 87.428 146.341 87.419 146.344 87.412C146.347 87.404 146.348 87.402 146.348 87.402C146.348 87.402 144.504 85.137 144.17 80.608C143.833 76.079 146.348 70.629 146.348 70.629C144.29 69.391 141.681 67.276 139.022 64.909L139.02 64.906C134.646 61.018 130.148 56.457 127.774 54.001C127.726 53.947 127.675 53.897 127.628 53.847C126.65 52.833 126.071 52.217 126.071 52.217C126.071 52.217 128.4 50.916 131.672 49.657C133.09 49.112 134.545 48.241 135.738 47.433C137.292 46.376 138.401 45.422 138.401 45.422C138.401 45.422 138.845 45.941 139.548 46.693C139.589 46.736 139.632 46.781 139.677 46.829C140.382 47.579 141.32 48.525 142.322 49.407C144.421 51.253 149.453 55.11 149.453 55.363C149.453 55.395 149.624 55.354 149.94 55.26C150.75 55.027 152.498 54.455 154.726 53.88C158.411 52.929 163.406 51.973 167.625 52.526C170.24 52.871 172.476 53.304 174.459 53.895C178.374 55.058 181.308 56.83 184.26 59.722C186.983 62.395 189.794 65.632 191.56 67.742C191.608 67.797 191.652 67.853 191.701 67.908C192.733 69.151 193.375 69.958 193.375 69.958Z" fill="#686969"/>
<path d="M174.454 53.897C172.537 54.882 169.049 56.248 164.411 56.255C159.153 56.26 156.04 54.727 154.721 53.881C158.406 52.93 163.401 51.974 167.62 52.527C170.235 52.873 172.47 53.306 174.454 53.897Z" fill="#484748"/>
<path d="M149.934 55.262C149.506 55.908 148.746 56.619 147.613 56.255C146.109 55.766 140.346 51.642 137.279 48.94C137.228 48.898 137.18 48.857 137.135 48.814C136.532 48.281 136.048 47.808 135.732 47.436C137.286 46.379 138.395 45.425 138.395 45.425C138.395 45.425 138.839 45.944 139.542 46.696C139.583 46.739 139.626 46.784 139.671 46.832C140.376 47.582 141.314 48.528 142.316 49.41C144.415 51.256 149.447 55.113 149.447 55.366C149.447 55.397 149.618 55.356 149.934 55.262Z" fill="#484748"/>
<path d="M180.226 66.871C180.255 66.941 180.397 67.286 180.593 67.835C180.45 67.504 180.327 67.182 180.226 66.871Z" fill="#E24F25"/>
<path d="M184.75 80.299L182.914 78.43C184.424 82.707 181.403 86.734 181.403 86.734C181.685 87.331 181.949 87.972 182.197 88.646C182.257 88.81 182.314 88.976 182.372 89.145C182.433 89.315 182.491 89.489 182.549 89.665C182.607 89.842 182.663 90.019 182.718 90.196C182.953 90.959 183.17 91.748 183.37 92.557C183.396 92.66 183.422 92.76 183.446 92.861C183.498 93.064 183.545 93.272 183.592 93.481C183.663 93.789 183.734 94.098 183.798 94.411C183.888 94.811 183.967 95.216 184.045 95.619C184.067 95.727 184.089 95.836 184.108 95.943C184.166 96.247 184.22 96.547 184.274 96.848C184.316 97.077 184.355 97.307 184.391 97.535C184.416 97.681 184.441 97.831 184.464 97.979C184.577 98.658 184.679 99.331 184.771 99.986C184.815 100.287 184.855 100.584 184.892 100.875C184.897 100.918 184.903 100.961 184.91 101.004C184.924 101.106 184.936 101.202 184.95 101.304C184.948 101.307 184.95 101.307 184.95 101.308C184.95 101.308 184.948 101.311 184.95 101.315C184.968 101.457 184.986 101.6 185.004 101.744C185.022 101.878 185.037 102.012 185.055 102.144C185.103 102.544 185.146 102.932 185.188 103.31C185.198 103.402 185.209 103.494 185.217 103.583C185.231 103.719 185.246 103.855 185.258 103.987C185.271 104.111 185.283 104.233 185.295 104.356C185.298 104.365 185.298 104.372 185.298 104.381C185.309 104.466 185.316 104.547 185.323 104.634C185.334 104.73 185.343 104.824 185.354 104.921C185.358 104.986 185.363 105.055 185.371 105.12C185.373 105.165 185.378 105.214 185.385 105.258C185.394 105.369 185.406 105.48 185.413 105.585C185.435 105.824 185.455 106.056 185.471 106.276C185.477 106.335 185.484 106.392 185.487 106.451C185.49 106.483 185.495 106.518 185.495 106.552C185.5 106.602 185.507 106.65 185.508 106.698C185.513 106.749 185.516 106.798 185.521 106.844C185.532 106.966 185.539 107.09 185.548 107.206C185.574 107.535 185.594 107.83 185.611 108.089C185.617 108.156 185.618 108.223 185.625 108.286C185.627 108.344 185.633 108.403 185.637 108.459C185.642 108.566 185.648 108.665 185.655 108.753C185.655 108.789 185.658 108.823 185.661 108.856C185.663 108.93 185.668 108.995 185.671 109.05C185.674 109.072 185.674 109.092 185.674 109.113C185.682 109.231 185.683 109.293 185.683 109.293C185.683 109.293 185.271 109.433 184.492 109.659C184.369 106.943 184.036 102.943 183.185 98.39C181.613 89.961 180.224 89.038 180.224 89.038C176.191 91.135 170.765 89.038 170.765 89.038C170.765 89.038 179.225 86.312 181.499 80.776C183.303 76.385 181.444 70.203 180.596 67.833C181.769 70.542 184.275 73.826 186.163 76.103C186.21 76.155 186.256 76.207 186.297 76.256C186.966 77.061 187.553 77.725 187.961 78.183C186.986 80.196 186.397 81.971 186.397 81.971L184.91 80.456L184.75 80.299Z" fill="#484748"/>
<path d="M160.476 88.873C160.476 88.873 156.612 89.411 153.348 89.291C150.082 89.173 150.082 89.173 150.082 89.173C150.082 89.173 148.287 89.202 146.637 99.399C145.923 103.793 145.313 107.134 144.844 109.514C143.675 108.853 143.071 108.374 143.071 108.374C140.471 101.077 146.342 87.404 146.342 87.404C146.342 87.404 144.498 85.139 144.164 80.61C143.827 76.081 146.342 70.631 146.342 70.631C144.284 69.393 141.675 67.278 139.016 64.911C141.715 66.557 145.533 68.394 147.614 68.082C147.614 68.082 143.966 75.77 144.752 80.904C145.536 86.04 149.787 87.572 153.434 87.068C157.08 86.565 160.476 88.873 160.476 88.873Z" fill="#484748"/>
<path d="M223.425 68.532C223.425 68.532 218.098 77.318 213.067 82.791C208.033 88.264 202.812 91.786 198.723 91.157C194.633 90.528 186.77 83.106 186.394 81.972C186.394 81.972 186.818 80.498 187.88 78.35C188.4 77.298 189.068 76.084 189.916 74.802C192.494 70.902 193.375 69.957 193.375 69.957C195.137 71.971 200.609 77.981 200.609 77.981C200.609 77.981 207.277 72.473 211.051 70.021C214.825 67.567 220.362 64.735 220.362 64.735L222.792 67.748L223.425 68.532Z" fill="#F2B6AC"/>
<path d="M223.425 68.532C223.425 68.532 218.098 77.318 213.067 82.791C208.033 88.264 202.812 91.786 198.723 91.157C194.633 90.528 186.77 83.106 186.394 81.972C186.394 81.972 186.818 80.498 187.88 78.35C190.037 81.686 196.47 88.125 199.477 88.578C202.812 89.082 211.745 82.665 216.399 76.94C219.348 73.313 221.567 69.82 222.793 67.749L223.425 68.532Z" fill="#F6958F"/>
<path d="M195.999 205.208C195.999 205.208 194.664 205.995 193.88 206.57C193.548 206.808 193.314 207.013 193.314 207.109C193.314 207.426 179.643 189.136 177.461 180.741C175.279 172.35 178.55 167.362 178.55 167.362C178.55 167.362 174.695 157.306 172.681 150.891C170.667 144.478 165.301 131.652 165.215 131.333C165.131 131.017 162.446 132.205 162.446 132.205C162.446 132.205 162.446 132.205 161.44 135.371C160.434 138.539 151.877 161.263 150.368 173.933C148.859 186.602 147.852 206.733 147.852 206.733C147.852 206.733 146.259 208.534 146.175 208.77C146.135 208.885 143.715 203.295 141.195 196.635C138.484 189.473 135.653 181.074 135.523 177.178C135.27 169.657 138.543 165.857 138.543 165.857C138.543 165.857 137.455 146.163 138.05 133.963C138.072 133.498 138.097 133.044 138.124 132.603C138.879 120.565 143.071 108.373 143.071 108.373C143.071 108.373 143.67 108.822 144.836 109.444C147.754 111.005 154.228 113.644 163.704 112.965C176.957 112.014 185.681 109.243 185.681 109.243C187.609 114.548 190.715 155.643 191.132 164.748C191.551 173.853 195.999 205.208 195.999 205.208Z" fill="#CE5442"/>
<path d="M146.175 208.773C145.684 208.5 148.105 205.051 149.95 205.763C151.794 206.476 156.239 209.941 156.239 209.941C156.239 209.941 150.454 211.149 146.175 208.773Z" fill="url(#paint5_linear)"/>
<path d="M193.313 207.11C193.313 207.11 195.494 204.26 198.764 204.182C202.035 204.101 204.552 207.11 204.552 207.11C204.552 207.11 197.59 208.139 193.313 207.11Z" fill="url(#paint6_linear)"/>
<path d="M139.671 46.831C139.148 47.345 138.33 48.1 137.278 48.94C136.4 49.642 135.359 50.399 134.187 51.123C131.909 52.533 129.381 53.478 127.766 54.002C127.718 53.948 127.667 53.898 127.62 53.848C129.221 53.337 131.782 52.389 134.089 50.965C135.241 50.252 136.268 49.506 137.134 48.813C138.197 47.967 139.019 47.205 139.541 46.694C139.583 46.738 139.626 46.784 139.671 46.831Z" fill="#46419A"/>
<path d="M191.695 67.91C190.387 69.348 188 72.301 186.295 76.258C185.736 77.558 185.254 78.964 184.907 80.458L184.75 80.3C185.105 78.814 185.597 77.406 186.161 76.105C187.858 72.188 190.219 69.199 191.555 67.745C191.602 67.798 191.646 67.855 191.695 67.91Z" fill="#46419A"/>
<path d="M183.182 78.799C183.14 78.799 183.1 78.77 183.091 78.727C182.487 76.132 179.912 68.129 179.731 67.831C179.705 67.786 179.715 67.727 179.758 67.699C179.803 67.673 179.858 67.682 179.886 67.725C180.063 67.989 182.648 75.993 183.276 78.684C183.288 78.735 183.255 78.786 183.205 78.797C183.197 78.798 183.191 78.799 183.182 78.799Z" fill="#46419A"/>
<path d="M145.992 71.556C145.981 71.556 145.971 71.554 145.962 71.55C145.912 71.534 145.885 71.481 145.902 71.431C146.865 68.614 148.955 64.5 149.194 64.381C149.24 64.357 149.298 64.375 149.321 64.422C149.343 64.465 149.328 64.517 149.288 64.543C149.066 64.76 147.076 68.578 146.081 71.492C146.068 71.532 146.031 71.556 145.992 71.556Z" fill="#46419A"/>
<path d="M152.209 89.426C148.769 89.426 146.715 88.28 145.913 87.122C145.883 87.078 145.895 87.019 145.936 86.99C145.98 86.961 146.039 86.971 146.069 87.014C146.925 88.25 149.285 89.474 153.34 89.197C157.08 88.94 165.839 88.339 167.759 88.949C167.81 88.965 167.835 89.018 167.821 89.068C167.805 89.118 167.753 89.144 167.702 89.129C165.817 88.529 157.084 89.129 153.353 89.385C152.956 89.413 152.575 89.426 152.209 89.426Z" fill="#46419A"/>
<path d="M177.04 89.135C177.002 89.135 176.965 89.11 176.951 89.07C176.935 89.02 176.962 88.967 177.012 88.95C177.051 88.936 177.123 88.929 177.24 88.914C177.987 88.823 180.256 88.546 181.66 86.173C181.686 86.129 181.745 86.114 181.79 86.141C181.835 86.168 181.85 86.226 181.824 86.271C180.372 88.722 178.032 89.009 177.263 89.102C177.176 89.113 177.094 89.123 177.071 89.13C177.061 89.132 177.05 89.135 177.04 89.135Z" fill="#46419A"/>
<path d="M199.101 80.034C199.092 80.034 199.084 80.033 199.074 80.031C199.024 80.016 198.995 79.965 199.01 79.915C199.309 78.848 200.743 77.749 200.805 77.702C200.846 77.671 200.907 77.679 200.937 77.72C200.969 77.763 200.961 77.821 200.918 77.853C200.904 77.863 199.474 78.96 199.191 79.966C199.18 80.006 199.141 80.034 199.101 80.034Z" fill="#9A3222"/>
<path d="M121.349 1.76401C120.894 2.62901 121.222 7.11101 122.229 6.92201C123.236 6.73301 122.984 5.35001 122.984 5.35001C122.984 5.35001 123.236 6.60801 123.927 6.41901C124.619 6.23001 124.367 4.72001 124.367 4.72001C124.367 4.72001 124.746 6.10401 125.436 5.97801C126.128 5.85301 126.192 4.34501 126.192 4.34501C126.192 4.34501 126.442 6.04101 127.45 5.41201C128.457 4.78301 128.555 0.442007 127.908 0.317007C127.262 0.191007 126.695 2.01501 126.695 2.01501C126.695 2.01501 126.064 0.506006 125.249 0.568006C124.43 0.631006 124.623 2.33001 124.623 2.33001C124.623 2.33001 124.116 0.0540062 123.549 0.311006C122.984 0.568006 122.921 2.26701 122.921 2.26701C122.921 2.26701 121.727 1.04301 121.349 1.76401Z" fill="#F4ABA3"/>
<path d="M126.883 6.60702C128.016 7.55002 131.917 3.58702 130.783 2.64402C129.652 1.70102 125.751 5.66402 126.883 6.60702Z" fill="#F4ABA3"/>
<path d="M223.11 62.332C222.494 61.443 220.023 63.402 219.742 65.037C219.461 66.673 220.172 67.112 221.705 65.54C221.705 65.54 220.752 67.23 221.396 68.083C222.04 68.937 223.11 67.176 223.11 67.176C223.11 67.176 222.229 69.064 222.795 69.503C223.361 69.943 226.821 66.894 226.13 65.808C225.438 64.723 224.745 66.232 224.745 66.232C224.745 66.232 225.562 64.408 224.998 63.905C224.431 63.403 223.299 64.408 223.299 64.408C223.299 64.408 223.675 63.15 223.11 62.332Z" fill="#F4ABA3"/>
<path opacity="0.3" d="M144.835 109.507C143.394 116.08 140.143 126.749 138.049 135.481C138.071 134.988 138.096 134.507 138.123 134.039C138.878 121.29 143.07 108.374 143.07 108.374C143.07 108.374 143.669 108.848 144.835 109.507Z" fill="#EE786F"/>
<path d="M193.879 206.571C193.547 206.809 193.313 207.014 193.313 207.11C193.313 207.427 179.642 189.137 177.46 180.742C175.278 172.351 178.549 167.363 178.549 167.363C178.549 167.363 174.694 157.307 172.68 150.892C170.666 144.479 165.3 131.653 165.214 131.334C165.13 131.018 162.445 132.206 162.445 132.206C162.445 132.206 162.445 132.206 161.439 135.372C160.433 138.54 151.876 161.264 150.367 173.934C148.858 186.603 147.851 206.734 147.851 206.734C147.851 206.734 146.258 208.535 146.174 208.771C146.134 208.886 143.714 203.296 141.194 196.636C142.185 193.569 143.265 190.038 143.911 187C145.422 179.872 149.612 168.152 152.632 157.024C155.653 145.895 162.194 131.115 162.194 131.115L165.753 129.03C165.753 129.03 166.39 129.195 168.905 133.326C171.422 137.46 181.741 166.253 181.741 166.253C181.741 166.253 182.159 174.804 184.549 185.414C186.333 193.344 191.419 202.465 193.879 206.571Z" fill="#AE1E45"/>
<path d="M168.232 51.263L167.898 53.162C167.898 53.162 168.024 54.043 164.587 54.308C161.149 54.576 160.166 52.751 160.166 52.751L159.968 51.211L159.72 49.289C159.72 49.289 161.168 49.89 164.2 49.752C167.231 49.613 168.679 48.686 168.679 48.686L168.232 51.263Z" fill="#F2B6AC"/>
<path d="M168.679 48.687L168.232 51.264C165.225 51.988 161.844 51.565 159.968 51.213L159.72 49.291C159.72 49.291 161.168 49.892 164.2 49.754C167.232 49.614 168.679 48.687 168.679 48.687Z" fill="#F6958F"/>
<defs>
<linearGradient id="paint0_linear" x1="14.0469" y1="206.298" x2="14.1408" y2="209.131" gradientUnits="userSpaceOnUse">
<stop offset="1.953e-05" stop-color="#EF443F"/>
<stop offset="0.995" stop-color="#EF384A"/>
</linearGradient>
<linearGradient id="paint1_linear" x1="92.0239" y1="206.28" x2="92.1229" y2="209.264" gradientUnits="userSpaceOnUse">
<stop offset="1.953e-05" stop-color="#EF443F"/>
<stop offset="0.995" stop-color="#EF384A"/>
</linearGradient>
<linearGradient id="paint2_linear" x1="16.5875" y1="28.8295" x2="17.4309" y2="54.2492" gradientUnits="userSpaceOnUse">
<stop offset="1.953e-05" stop-color="#EF443F"/>
<stop offset="0.995" stop-color="#EF384A"/>
</linearGradient>
<linearGradient id="paint3_linear" x1="34.2515" y1="30.4385" x2="35.0219" y2="53.6626" gradientUnits="userSpaceOnUse">
<stop offset="1.953e-05" stop-color="#EF443F"/>
<stop offset="0.995" stop-color="#EF384A"/>
</linearGradient>
<linearGradient id="paint4_linear" x1="163.153" y1="58.9839" x2="166.04" y2="19.5308" gradientUnits="userSpaceOnUse">
<stop offset="5.859e-05" stop-color="#FDC47F"/>
<stop offset="1" stop-color="#F1ECE7"/>
</linearGradient>
<linearGradient id="paint5_linear" x1="146.111" y1="207.957" x2="156.24" y2="207.957" gradientUnits="userSpaceOnUse">
<stop offset="1.953e-05" stop-color="#EF443F"/>
<stop offset="0.995" stop-color="#EF384A"/>
</linearGradient>
<linearGradient id="paint6_linear" x1="193.313" y1="205.874" x2="204.552" y2="205.874" gradientUnits="userSpaceOnUse">
<stop offset="1.953e-05" stop-color="#EF443F"/>
<stop offset="0.995" stop-color="#EF384A"/>
</linearGradient>
</defs>
</svg>
