<svg width="219" height="318" viewBox="0 0 219 318" fill="none" xmlns="http://www.w3.org/2000/svg">
<path d="M45.7275 292.639C44.0514 292.98 77.031 296.537 131.512 291.885C131.512 291.885 66.7654 288.359 45.7275 292.639Z" fill="#D7DAD9"/>
<path d="M149.821 292.639C149.821 292.639 164.014 297.896 193.782 291.885C193.782 291.885 164.793 291.565 149.821 292.639Z" fill="#D7DAD9"/>
<path d="M185.844 233.785C184.143 236.498 178.296 240.27 175.509 241.97C175.014 242.273 174.616 242.509 174.356 242.662C174.134 242.795 174.009 242.864 174.009 242.864L171.314 239.934L172.597 238.575L176.402 234.529L178.417 232.392C177.232 229.631 171.954 225.797 171.954 225.797C171.954 225.797 170.957 228.223 169.997 232.729C169.268 236.142 169.026 241.204 168.953 243.455C168.929 244.177 168.923 244.608 168.923 244.608C168.923 244.608 166.041 246.129 159.428 245.79C152.815 245.454 148.858 243.875 148.858 243.875C148.858 243.875 148.845 243.767 148.822 243.554C148.733 242.692 148.496 240.153 148.407 236.446C148.292 231.826 148.407 223.329 148.407 223.329C148.407 223.329 143.659 218.259 140.493 213.586C138.183 210.178 136.118 206.205 135.167 204.298C135.119 204.201 135.074 204.11 135.033 204.026C134.765 203.486 134.616 203.17 134.616 203.17L137.806 200.092C137.986 200.215 138.266 200.46 138.624 200.805C141.084 203.165 147.125 209.998 148.803 211.278C149.33 211.679 150.228 211.967 151.255 212.171C153.063 212.532 155.274 212.64 156.589 212.672C157.253 212.688 157.693 212.684 157.732 212.684C157.901 212.684 165.59 213.921 165.59 213.921C165.59 213.921 166.006 214.018 166.771 214.291C167.584 214.579 168.789 215.068 170.31 215.851C170.314 215.851 170.314 215.851 170.314 215.851C171.688 216.556 173.323 217.503 175.157 218.765C179.335 221.635 182.795 227.604 184.565 231.09C185.386 232.703 185.844 233.785 185.844 233.785Z" fill="#CD5441"/>
<path d="M170.31 215.851C168.809 216.088 165.818 216.393 161.615 215.988C156.946 215.537 152.961 213.276 151.254 212.171C153.062 212.532 155.273 212.64 156.588 212.672C157.252 212.688 157.692 212.684 157.731 212.684C157.9 212.684 165.589 213.921 165.589 213.921C165.589 213.921 166.005 214.018 166.77 214.291C167.584 214.579 168.789 215.068 170.31 215.851Z" fill="#AE1E45"/>
<path d="M148.407 236.445C148.292 231.825 148.407 223.328 148.407 223.328C148.407 223.328 143.659 218.258 140.493 213.585C138.183 210.177 136.118 206.204 135.168 204.297C135.119 204.2 135.074 204.109 135.033 204.025C135.738 203.587 136.231 203.298 136.231 203.298C137.555 206.68 140.418 211.151 143.054 214.581C145.692 218.013 148.332 220.492 149.462 221.693C150.592 222.893 148.708 229.875 148.407 236.445Z" fill="#AE1E45"/>
<path d="M176.404 234.529L178.419 232.392C177.233 229.631 171.955 225.797 171.955 225.797C171.955 225.797 170.958 228.223 169.998 232.729C169.269 236.142 169.027 241.204 168.955 243.455C168.381 241.663 167.852 239.107 168.001 236.021C168.303 229.803 170.164 224.615 170.164 224.615C170.164 224.615 172.47 224.398 175.511 226.723C178.552 229.053 179.606 232.803 179.606 232.803C179.606 232.803 178.144 233.511 176.404 234.529Z" fill="#AE1E45"/>
<path d="M185.845 233.785C184.143 236.498 178.296 240.27 175.51 241.97C175.014 242.273 174.617 242.509 174.356 242.662C174.293 241.753 174.255 241.111 174.255 241.111C176.382 240.383 182.761 235.524 184.563 231.091C185.387 232.703 185.845 233.785 185.845 233.785Z" fill="#AE1E45"/>
<path d="M166.771 214.291C166.499 214.835 166.159 215.494 165.801 216.146C165.461 216.753 165.112 217.358 164.78 217.863C163.593 219.665 159.861 220.867 158.02 217.863C157.379 216.822 157.017 215.678 156.817 214.626C156.677 213.907 156.613 213.237 156.588 212.671C157.252 212.687 157.692 212.683 157.731 212.683C157.9 212.683 165.588 213.92 165.588 213.92C165.588 213.92 166.006 214.018 166.771 214.291Z" fill="#AE1E45"/>
<path d="M166.77 214.291C166.499 214.835 166.159 215.494 165.801 216.146C164.811 216.273 163.433 216.327 161.615 216.148C159.816 215.97 158.157 215.328 156.818 214.627C156.678 213.908 156.614 213.238 156.589 212.672C157.253 212.688 157.693 212.684 157.732 212.684C157.901 212.684 165.589 213.921 165.589 213.921C165.589 213.921 166.006 214.018 166.77 214.291Z" fill="#AE1E45"/>
<path d="M165.201 214.062C164.988 214.601 164.705 215.278 164.39 215.912C164.126 216.439 163.838 216.936 163.554 217.299C162.537 218.594 159.938 218.427 159.201 217.638C158.869 217.281 158.594 216.29 158.397 215.318C158.159 214.157 158.031 213.018 158.031 213.014C160.558 214.545 162.8 214.707 164.911 214.148C165.005 214.124 165.103 214.092 165.201 214.062Z" fill="#F2B6AC"/>
<path d="M165.201 214.062C164.988 214.601 164.705 215.278 164.39 215.912C162.899 216.194 160.285 216.451 158.397 215.318C158.159 214.157 158.031 213.018 158.031 213.014C160.558 214.545 162.8 214.707 164.911 214.148C165.005 214.124 165.103 214.092 165.201 214.062Z" fill="#F6958F"/>
<path d="M171.155 206.936C171.022 207.777 170.745 208.59 170.373 209.352C169.163 211.819 166.9 213.737 164.947 214.368C164.855 214.396 164.764 214.425 164.674 214.451C163.38 214.792 162.037 214.848 160.601 214.444C159.834 214.231 159.036 213.886 158.207 213.383C158.047 213.286 157.886 213.183 157.724 213.076C157.135 212.68 156.532 212.206 155.909 211.645C152.563 208.629 152.144 203.601 152.251 202.439C152.324 201.633 152.902 200.879 154.392 199.755C155.056 199.255 155.907 198.679 156.972 197.996C160.424 195.772 161.91 191.592 161.91 191.592C161.91 191.592 163.611 193.762 165.525 195.665C167.437 197.571 171.156 199.105 171.156 199.105C171.156 199.105 171.74 203.231 171.155 206.936Z" fill="#F2B6AC"/>
<path d="M160.601 214.444C159.834 214.231 159.036 213.885 158.207 213.383C158.047 213.286 157.886 213.183 157.724 213.075C157.135 212.68 156.532 212.206 155.909 211.644C152.563 208.629 152.144 203.601 152.251 202.439C152.324 201.633 152.902 200.879 154.392 199.755C154.447 203.273 155.65 211.799 160.601 214.444Z" fill="#F6958F"/>
<path d="M184.298 287.848L183.709 288.058L182.246 288.579C182.246 288.579 180.23 287.061 176.385 282.556C172.541 278.051 172.426 273.097 172.316 272.815C172.201 272.535 161.141 253.278 161.141 253.278C161.141 253.278 161.072 253.775 160.475 257.35C159.98 260.3 158.875 269.737 158.875 269.737C158.875 269.737 160.503 271.689 161.068 277.038C161.577 281.875 159.27 287.173 158.32 288.557C158.222 288.704 158.138 288.807 158.071 288.862C157.393 289.424 156.038 288.862 156.038 288.862C156.038 288.862 152.702 274.786 151.064 266.342C150.24 262.12 149.693 256.501 149.343 251.9C149.002 247.445 148.849 243.94 148.825 243.579C148.848 243.775 148.859 243.875 148.859 243.875C148.859 243.875 152.816 245.454 159.429 245.79C166.042 246.129 168.924 244.608 168.924 244.608C168.924 244.608 172.825 252.83 174.634 259.304C176.443 265.778 184.298 287.848 184.298 287.848Z" fill="#474647"/>
<path d="M156.207 288.578C156.038 288.861 151.514 291.882 151.514 291.882C151.514 291.882 155.79 291.906 159.034 291.676C159.034 291.676 158.881 289.479 158.307 288.578H156.207Z" fill="#F2B6AC"/>
<path d="M181.968 288.15C181.968 288.15 181.359 290.044 181.53 290.886H189.612L184.297 287.847L181.968 288.15Z" fill="#F2B6AC"/>
<path d="M163.493 207.295C162.796 207.295 162.483 206.839 162.478 206.832C162.453 206.795 162.462 206.743 162.502 206.714C162.541 206.689 162.594 206.699 162.62 206.739C162.639 206.765 163.063 207.368 164.081 207.02C164.942 206.725 165.402 206.045 165.545 205.804C162.537 204.847 162.467 201.44 162.467 201.406C162.464 201.359 162.504 201.322 162.55 201.322C162.551 201.322 162.551 201.322 162.551 201.322C162.596 201.322 162.635 201.359 162.635 201.404C162.635 201.439 162.707 204.794 165.69 205.674C165.716 205.68 165.734 205.698 165.744 205.719C165.755 205.743 165.755 205.767 165.744 205.79C165.724 205.832 165.255 206.796 164.136 207.179C163.893 207.262 163.679 207.295 163.493 207.295Z" fill="#9A3222"/>
<path d="M159.561 208.819C159.561 208.819 164.006 209.644 166.153 209.119C166.153 209.119 164.874 211.522 162.537 211.708C160.201 211.897 159.561 208.819 159.561 208.819Z" fill="white"/>
<path d="M171.955 225.881C171.943 225.881 171.931 225.877 171.918 225.869C171.242 225.521 169.676 224.361 169.609 224.313C169.571 224.285 169.564 224.232 169.592 224.193C169.618 224.155 169.672 224.149 169.71 224.176C169.727 224.188 171.332 225.377 171.997 225.722C172.037 225.741 172.054 225.793 172.031 225.834C172.016 225.861 171.986 225.881 171.955 225.881Z" fill="url(#paint0_linear)"/>
<path d="M166.304 203.019C166.634 202.987 166.849 202.404 166.782 201.717C166.716 201.03 166.394 200.498 166.063 200.53C165.733 200.562 165.518 201.144 165.585 201.832C165.651 202.519 165.973 203.05 166.304 203.019Z" fill="#02292E"/>
<path d="M158.408 202.921C158.477 203.657 158.271 204.275 157.949 204.306C157.627 204.336 157.305 203.766 157.238 203.034C157.167 202.297 157.373 201.678 157.698 201.649C158.017 201.618 158.337 202.188 158.408 202.921Z" fill="#02292E"/>
<path d="M137.951 199.792C137.878 200.209 136.581 201.519 135.628 202.381C135.074 202.881 134.635 203.231 134.615 203.17C134.557 203.001 131.054 197.316 131.561 196.608C131.607 196.545 131.657 196.508 131.709 196.491C132.036 196.39 132.502 197.079 132.825 197.653C132.357 196.695 131.644 195.111 131.957 194.838C132.382 194.466 133.711 197.239 133.862 197.564C133.71 197.188 132.224 193.59 132.973 193.43C133.764 193.262 135.066 196.695 135.179 196.808C135.291 196.922 134.217 193.881 134.839 193.825C135.46 193.767 136.76 197.99 136.76 198.161C136.76 198.331 137.043 195.456 137.948 195.571C138.853 195.682 137.988 199.569 137.951 199.792Z" fill="#F2B6AC"/>
<path d="M135.628 202.381C135.074 202.881 134.635 203.231 134.615 203.17C134.557 203.001 131.054 197.316 131.561 196.608C131.607 196.545 131.657 196.508 131.709 196.491C132.341 197.837 134.361 201.106 135.628 202.381Z" fill="#F6958F"/>
<path d="M174.01 242.864C173.704 244.225 171.215 246.103 170.665 245.884C170.64 245.875 170.618 245.86 170.602 245.839C170.264 245.449 171.096 244.675 171.278 244.507C171.026 244.707 169.498 245.891 169.207 245.585C168.933 245.296 170.177 244.014 170.539 243.65C170.061 244.101 167.97 246.02 167.472 245.492C166.936 244.925 169.591 242.925 169.894 242.697C169.618 242.871 167.507 244.218 167.472 243.726C167.433 243.2 169.733 241.024 169.845 240.988C169.849 240.988 169.849 240.988 169.849 240.987C169.787 240.987 167.547 241.44 167.472 240.501C167.398 239.525 171.314 239.935 171.314 239.935L173.034 241.802L174.01 242.864Z" fill="#F2B6AC"/>
<path d="M174.01 242.864C173.704 244.225 171.215 246.103 170.665 245.884C171.954 244.438 172.88 243.144 173.035 241.8L174.01 242.864Z" fill="#F6958F"/>
<path d="M183.709 288.057L182.246 288.578C182.246 288.578 180.23 287.06 176.385 282.555C172.541 278.05 172.426 273.096 172.316 272.813C172.201 272.533 161.141 253.277 161.141 253.277C161.141 253.277 161.072 253.774 160.475 257.349C159.98 260.299 158.875 269.736 158.875 269.736C158.875 269.736 160.503 271.688 161.068 277.037C161.577 281.874 159.269 287.172 158.32 288.556C158.848 286.349 159.689 282.388 159.637 279.346C159.562 274.916 156.622 269.51 156.622 269.51C156.622 269.51 160.543 254.123 160.841 252.322C160.841 252.322 170.234 265.308 173.412 269.736C175.939 273.255 181.307 283.582 183.709 288.057Z" fill="#686868"/>
<path d="M175.511 241.97C174.596 242.529 174.01 242.863 174.01 242.863L172.999 241.759L171.315 239.933L172.598 238.574C173.116 239.199 173.88 240.089 174.621 240.947C174.93 241.301 175.232 241.651 175.511 241.97Z" fill="#AE1E45"/>
<path d="M175.511 241.97C174.596 242.529 174.01 242.863 174.01 242.863L173 241.759C173.563 241.431 174.19 241.137 174.621 240.947C174.93 241.302 175.232 241.651 175.511 241.97Z" fill="#F5AE39"/>
<path d="M138.623 200.805C138.069 202.048 137.209 202.931 136.399 203.533C135.955 203.871 135.526 204.121 135.168 204.298C134.814 203.591 134.615 203.17 134.615 203.17L135.509 202.303L137.804 200.092C137.985 200.215 138.266 200.46 138.623 200.805Z" fill="#AE1E45"/>
<path d="M136.399 203.533C135.955 203.871 135.526 204.121 135.168 204.298C134.814 203.591 134.615 203.17 134.615 203.17L135.509 202.303L136.399 203.533Z" fill="#AE1E45"/>
<path d="M170.375 209.352H170.373C170.744 208.59 171.022 207.778 171.155 206.936C171.237 206.414 171.299 205.881 171.336 205.355C171.584 202.148 171.155 199.105 171.155 199.105C171.155 199.105 167.436 197.571 165.524 195.665C163.609 193.762 161.909 191.592 161.909 191.592C161.909 191.592 160.424 195.772 156.971 197.996C153.518 200.216 152.355 201.275 152.25 202.439C152.189 203.087 152.296 204.942 152.983 206.981C153.525 208.589 154.431 210.314 155.908 211.645C156.53 212.206 157.135 212.68 157.723 213.076C154.312 213.383 149.056 214.027 147.038 207.251C146.08 204.039 148.097 201.378 148.578 200.482C148.627 200.384 148.666 200.26 148.697 200.106C148.965 198.794 148.716 195.473 150.81 192.489C153.147 189.156 158.618 188.31 160.158 188.678C160.158 188.678 162.708 187.594 166.744 189.738C170.782 191.884 172.854 197.148 173.278 199.263C173.337 199.571 173.421 199.862 173.51 200.142C174.051 201.775 175.001 203.012 175.137 205.135C175.488 210.574 170.375 209.352 170.375 209.352Z" fill="#713B23"/>
<path d="M155.909 211.645C156.532 212.206 157.137 212.68 157.724 213.076C154.313 213.383 149.057 214.027 147.039 207.251C146.081 204.039 148.098 201.378 148.579 200.482C148.628 200.384 148.667 200.26 148.698 200.106C149.058 203.493 150.675 205.368 152.984 206.981C153.525 208.59 154.431 210.314 155.909 211.645Z" fill="#602E1A"/>
<path d="M170.375 209.352H170.373C170.744 208.59 171.022 207.778 171.155 206.936C171.237 206.414 171.299 205.881 171.336 205.355C172.484 203.76 173.138 201.822 173.511 200.142C174.052 201.775 175.002 203.013 175.138 205.135C175.488 210.574 170.375 209.352 170.375 209.352Z" fill="#602E1A"/>
<path d="M154.502 201.238C154.502 201.238 155.497 200.417 156.746 200.008C157.995 199.6 159.999 199.381 159.999 199.381C159.999 199.381 158.202 197.17 155.855 198.893C154.223 200.093 154.502 201.238 154.502 201.238Z" fill="#88442A"/>
<path d="M164.213 198.518C163.902 198.039 164.272 197.246 165.341 196.778C167.088 196.015 168.597 196.892 169.483 197.745C169.483 197.745 166.971 197.635 165.826 198.354C165.027 198.857 164.427 198.846 164.213 198.518Z" fill="#88442A"/>
<path d="M152.816 198.859C152.781 198.859 152.749 198.839 152.738 198.806C152.719 198.764 152.741 198.714 152.783 198.696C154.507 198.003 157.16 196.262 160.018 191.916C160.104 191.783 160.145 191.722 160.165 191.698C160.195 191.662 160.249 191.659 160.285 191.689C160.32 191.719 160.324 191.771 160.294 191.808C160.279 191.826 160.226 191.907 160.159 192.01C157.279 196.394 154.593 198.151 152.849 198.853C152.837 198.858 152.827 198.859 152.816 198.859Z" fill="#85482F"/>
<path d="M170.806 196.575C170.787 196.575 170.771 196.567 170.754 196.556C168.576 194.827 165.187 192.531 165.152 192.508C165.115 192.482 165.103 192.43 165.128 192.391C165.155 192.35 165.207 192.341 165.247 192.368C165.281 192.391 168.677 194.69 170.861 196.423C170.897 196.451 170.902 196.504 170.875 196.542C170.857 196.563 170.832 196.575 170.806 196.575Z" fill="#85482F"/>
<path d="M165.557 224.609C162.647 224.283 162.239 229.076 165.557 229.239C168.877 229.4 168.465 224.933 165.557 224.609Z" fill="#AE1E45"/>
<path d="M133.268 60.2927C132.497 61.7029 131.417 62.7595 130.337 63.2964C129.404 63.763 128.462 63.8437 127.708 63.4312C126.075 62.544 125.91 59.6981 127.349 57.0758C127.65 56.5193 128.001 56.0193 128.382 55.5826C129.796 53.9615 131.616 53.2356 132.907 53.9373C134.544 54.8268 134.705 57.6703 133.268 60.2927Z" fill="#DDDCDC"/>
<path d="M130.337 63.2964C129.404 63.763 128.462 63.8437 127.708 63.4312C126.075 62.544 125.91 59.6981 127.349 57.0758C127.65 56.5193 128.001 56.0193 128.382 55.5826C128.316 57.7683 128.616 61.2939 130.337 63.2964Z" fill="#C9C9C9"/>
<path d="M184.726 132.96C184.43 134.188 183.2 135.492 181.443 136.266C179.804 136.988 178.125 137.063 177.004 136.571C176.463 136.337 176.053 135.972 175.837 135.481C175.167 133.975 176.594 131.892 179.025 130.82C181.456 129.748 183.965 130.101 184.632 131.605C184.82 132.024 184.842 132.487 184.726 132.96Z" fill="#DDDCDC"/>
<path d="M184.726 132.96C184.43 134.188 183.2 135.492 181.443 136.266C179.804 136.988 178.125 137.063 177.004 136.571C177.818 134.981 180.233 131.687 184.726 132.96Z" fill="#C9C9C9"/>
<path d="M111.164 149.429C110.995 150.057 110.768 150.731 110.498 151.41V151.412C109.716 153.419 108.581 155.52 107.432 156.988C107.214 157.269 106.953 157.519 106.665 157.754C104.1 159.836 99.1631 160.251 98.8601 160.55C98.5211 160.887 86.2382 168.282 86.2382 168.282C86.2382 168.282 86.7934 170.218 86.7159 171.189C86.6998 171.391 86.6558 171.553 86.5748 171.644C86.4823 171.749 86.0543 171.882 85.3834 172.007C82.6004 172.526 75.6834 172.927 71.9276 170.703C67.2708 167.946 64.7064 161.492 64.8406 161.291C64.9748 161.088 69.6998 158.737 70.5107 157.726C71.3192 156.718 73.2775 151.408 75.5041 146.298C76.6192 143.743 77.8164 141.629 78.7475 140.116C78.8805 139.901 79.0066 139.7 79.1315 139.513C79.8591 138.37 80.3599 137.689 80.4062 137.585C80.4733 137.438 81.3732 136.873 83.232 135.785C84.4569 135.068 86.1017 134.124 88.1942 132.919C90.828 131.405 92.7562 130.528 94.0262 130.028C94.0563 130.018 94.0841 130.005 94.113 129.995C95.3252 129.521 95.9105 129.404 95.9105 129.404L97.3066 130.632C97.3066 130.632 97.2083 131.042 97.0232 131.814C96.8035 132.718 96.4611 134.125 96.025 135.943C95.2153 139.304 93.9314 145.557 93.9314 145.557C93.9314 145.557 95.9568 145.893 101.154 144.414C106.352 142.936 107.837 140.85 107.837 140.85L107.988 141.092L111.277 146.396L111.548 146.834C111.586 147.527 111.443 148.429 111.164 149.429Z" fill="#CD5441"/>
<path d="M111.164 149.429C107.232 148.836 107.302 143.316 107.986 141.095L111.276 146.398L111.547 146.836C111.586 147.527 111.443 148.429 111.164 149.429Z" fill="#BD4539"/>
<path d="M110.497 151.414C109.716 153.421 108.581 155.521 107.432 156.989C107.214 157.27 106.953 157.52 106.665 157.755C104.1 159.837 99.1631 160.252 98.86 160.551C98.5211 160.888 86.2382 168.284 86.2382 168.284C86.2382 168.284 86.7934 170.219 86.7159 171.191C86.6997 171.392 86.6557 171.555 86.5748 171.646C86.4822 171.751 86.0543 171.883 85.3834 172.009C85.2053 170.382 84.9542 168.217 84.7981 167.19C84.7981 167.19 92.9088 162.655 95.5576 159.7C95.5576 159.7 92.7133 158.683 91.8134 158.183C91.8134 158.183 98.3221 159.178 103.26 156.48C106.944 154.466 109.461 152.353 110.497 151.414Z" fill="#BD4539"/>
<path d="M97.3054 130.633C97.3054 130.633 97.2071 131.043 97.0221 131.815C96.0655 131.608 94.7168 131.086 94.1118 129.996C95.324 129.522 95.9093 129.405 95.9093 129.405L97.3054 130.633Z" fill="#BD4539"/>
<path d="M80.8377 149.048C78.9476 147.894 78.766 145.927 78.6689 143.072C78.6307 141.928 78.8505 140.644 79.1304 139.514C79.858 138.371 80.3588 137.69 80.4051 137.586C80.4722 137.439 81.3721 136.874 83.2309 135.787C79.216 141.687 80.9314 149.102 80.8377 149.048Z" fill="#BD4539"/>
<path d="M184.332 148.942C182.084 149.841 177.582 148.942 177.582 148.942C177.582 148.942 175.962 150.021 168.672 151.9C161.384 153.784 146.443 154.951 145.816 154.951C145.185 154.951 140.955 157.102 131.198 158.356C122.431 159.484 109.761 158.439 106.69 157.761C106.681 157.757 106.672 157.757 106.666 157.755C106.682 157.741 106.697 157.729 106.714 157.714C106.982 157.492 107.225 157.254 107.432 156.99C108.163 156.057 108.886 154.868 109.519 153.611C110.756 151.153 111.638 148.437 111.549 146.838L111.278 146.4C112.036 146.236 114.566 146.467 118.937 147.154C124.096 147.96 144.555 148.23 145.771 147.781C146.984 147.33 153.824 144.822 162.286 144.014C170.745 143.208 177.313 144.195 177.313 144.195C178.304 141.952 181.724 138.993 181.724 138.993L184.207 148.464L184.332 148.942Z" fill="#F2B6AC"/>
<path d="M184.332 148.942C182.084 149.841 177.582 148.942 177.582 148.942C177.582 148.942 175.962 150.02 168.672 151.9C161.384 153.783 146.443 154.951 145.816 154.951C145.185 154.951 140.955 157.102 131.198 158.356C122.431 159.484 109.761 158.439 106.69 157.761L106.714 157.714C106.982 157.492 107.225 157.254 107.432 156.99C108.163 156.057 108.886 154.868 109.519 153.611C111.155 154.516 115.614 156.417 124.306 156.482C135.734 156.567 144.915 153.139 144.915 153.139C144.915 153.139 159.818 152.341 167.443 150.911C175.064 149.484 177.039 147.599 177.039 147.599C177.039 147.599 180.793 148.508 184.207 148.463L184.332 148.942Z" fill="#F6958F"/>
<path d="M106.824 137.02C106.756 137.692 107.836 140.852 107.836 140.852C107.836 140.852 106.351 142.938 101.152 144.416C98.3128 145.225 96.4182 145.49 95.2869 145.566C94.3465 145.629 93.9313 145.56 93.9313 145.56C93.9313 145.56 93.9613 145.415 94.0134 145.157C94.0134 145.157 94.0134 145.157 94.0157 145.157C94.313 143.721 95.339 138.795 96.0249 135.946C96.8334 132.586 97.3065 130.635 97.3065 130.635C97.4418 130.434 100.278 131.978 100.75 132.181C100.986 132.281 101.887 130.894 102.726 129.469C103.557 128.051 104.329 126.592 104.329 126.517C104.562 127.159 104.812 127.742 105.083 128.269C106.367 130.779 108.119 132.066 110.618 132.825C110.751 132.866 110.888 132.899 111.027 132.938L111.034 132.944C111.034 132.944 109.998 133.795 108.956 134.732C107.909 135.664 106.858 136.684 106.824 137.02Z" fill="#F2B6AC"/>
<path d="M111.033 132.941C111.033 132.941 109.997 133.792 108.955 134.729C107.305 134.952 104.744 134.328 102.725 129.467C103.556 128.049 104.328 126.59 104.328 126.515C104.561 127.157 104.811 127.74 105.082 128.267C106.366 130.777 108.118 132.064 110.617 132.823C110.75 132.863 110.887 132.897 111.026 132.936L111.033 132.941Z" fill="#F6958F"/>
<path d="M97.117 141.78C96.748 142.534 95.8944 144.301 95.2859 145.565C94.3455 145.628 93.9303 145.559 93.9303 145.559C93.9303 145.559 93.9604 145.414 94.0124 145.156C94.0124 145.156 94.0124 145.156 94.0147 145.156C94.8522 144.394 96.5259 142.804 97.117 141.78Z" fill="#FAB69E"/>
<path d="M97.2905 141.43C97.2824 141.456 97.257 141.509 97.2177 141.592C97.1911 141.65 97.161 141.706 97.1274 141.765C97.2096 141.589 97.2674 141.473 97.2905 141.43Z" fill="#FAB69E"/>
<path d="M125.452 55.8049C125.452 55.8049 123.159 58.4261 122.01 58.7626L120.724 61.7075C120.683 62.1453 120.62 62.6777 120.526 63.3321C119.985 67.0974 115.937 78.3921 112.832 83.6368C109.727 88.8815 105.272 94.1262 105.272 94.1262C105.272 94.1262 103.111 105.421 101.087 113.624C99.4534 120.239 96.8544 127.024 95.9093 129.405C95.9093 129.405 95.25 129.536 93.8747 130.09C92.6047 130.598 90.725 131.464 88.193 132.919C85.5627 134.432 83.6415 135.535 82.3679 136.293C81.0909 137.052 80.4582 137.461 80.405 137.585C81.0898 136.054 84.8028 127.75 85.2909 126.513C85.8311 125.149 87.4504 113.622 90.6915 105.689C93.9302 97.7556 99.465 90.1363 99.465 90.1363C99.465 90.1363 100.815 83.8592 105.494 75.6143C109.78 68.0652 114.35 61.0462 116.679 58.6036L117.419 56.6783C117.419 56.6783 117.271 53.7356 118.162 51.5453L123.508 54.6689L125.452 55.8049Z" fill="#F2B6AC"/>
<path d="M125.452 55.8049C125.452 55.8049 123.159 58.4261 122.01 58.7626L120.724 61.7075C120.683 62.1454 120.62 62.6777 120.526 63.3321C119.985 67.0974 115.938 78.3922 112.832 83.6369C109.727 88.8815 105.272 94.1262 105.272 94.1262C105.272 94.1262 103.111 105.421 101.087 113.624C99.4535 120.239 96.8544 127.024 95.9094 129.405C95.9094 129.405 95.2501 129.536 93.8748 130.09C94.8117 127.484 97.427 120.403 99.1979 114.161C101.356 106.542 103.511 93.2725 103.511 93.2725C103.511 93.2725 110.447 84.9365 113.96 78.1237C117.467 71.312 120.192 60.348 120.192 60.348L121.683 57.418L123.51 54.6712L125.452 55.8049Z" fill="#F6958F"/>
<path d="M128.017 104.95C125.62 102.927 120.45 102.547 114.276 105.469C112.553 106.282 110.754 107.351 108.914 108.715C108.914 108.715 109.455 107.169 107.363 107.236C105.27 107.303 102.706 111.874 105.001 115.103C105.001 115.103 104.026 116.281 103.535 118.475C103.179 120.065 103.075 122.186 103.785 124.783C103.954 125.407 104.136 125.98 104.328 126.514C104.56 127.156 104.81 127.74 105.082 128.267C106.366 130.777 108.118 132.064 110.617 132.823C110.75 132.862 110.889 132.899 111.027 132.936C111.806 133.146 112.647 133.319 113.572 133.458C116.828 133.95 119.881 133.063 122.32 131.518C123.875 130.533 125.182 129.281 126.127 127.944C126.822 126.961 127.524 125.879 128.175 124.701C129.791 121.778 131.091 118.247 131.187 114.027C131.326 108.11 129.773 106.429 128.017 104.95Z" fill="#F2B6AC"/>
<path d="M114.277 105.469C111.157 108.121 106.589 113.118 105.722 119.627C105.177 123.708 105.047 126.453 105.083 128.267C104.585 127.302 104.159 126.154 103.787 124.783C103.076 122.186 103.18 120.066 103.537 118.475C104.027 116.281 105.002 115.103 105.002 115.103C102.707 111.874 105.272 107.303 107.364 107.236C109.457 107.169 108.915 108.715 108.915 108.715C110.754 107.351 112.553 106.282 114.277 105.469Z" fill="#F6958F"/>
<path d="M117.196 285.923C117.286 286.19 114.946 285.472 114.946 285.472C114.946 285.472 113.055 281.618 112.067 279.108C111.911 278.705 111.207 277.227 110.115 274.977C110.115 274.977 110.115 274.975 110.114 274.97C104.35 263.074 87.8149 229.714 84.258 221.198C80.028 211.066 69.9486 186.146 69.9486 186.146C69.9486 186.146 67.427 196.097 65.537 205.419C63.6458 214.743 61.5788 226.127 61.1288 235.9C60.6777 245.671 58.3377 285.83 58.3377 285.83C58.222 285.962 58.0786 286.078 57.9259 286.175C57.1324 286.691 55.9989 286.818 55.9989 286.818C55.9989 286.818 46.0085 251.502 45.7379 241.997C45.4672 232.493 50.0465 222.633 50.0465 222.633C50.0465 222.633 50.4167 214.926 50.2397 205.513C50.0581 196.098 49.2484 183.996 53.2089 174.584C57.166 165.172 64.3664 161.494 64.8395 161.293C64.7053 161.494 67.2697 167.949 71.9265 170.705C75.6175 172.889 82.3564 172.542 85.232 172.034C85.985 171.903 86.4766 171.761 86.5737 171.647C86.6547 171.557 86.6986 171.393 86.7148 171.192C86.7148 171.192 91.994 193.409 93.6145 200.848C95.2362 208.288 100.277 227.382 100.277 227.382C100.277 227.382 100.277 227.382 103.966 231.328C107.654 235.27 111.887 237.245 114.585 250.692C117.286 264.139 117.106 285.653 117.196 285.923Z" fill="#474647"/>
<path d="M55.9989 286.817C55.6611 286.885 49.8557 289.238 47.0206 291.524L59.3059 291.861L58.3539 285.544L55.9989 286.817Z" fill="#F2B6AC"/>
<path d="M114.855 291.524C114.855 291.524 126.33 291.995 126.6 291.861C126.868 291.728 117.195 285.919 117.195 285.919L114.945 285.472L114.855 291.524Z" fill="#F2B6AC"/>
<path d="M134.227 119.337C132.742 122.901 134.971 125.993 134.971 125.993C133.566 126.833 131.435 126.221 129.935 125.583C128.909 125.147 128.179 124.7 128.179 124.7H128.177C129.792 121.777 131.093 118.246 131.189 114.025C131.324 108.109 129.77 106.429 128.016 104.95C124.948 102.363 117.353 102.461 108.913 108.715C108.913 108.715 109.454 107.169 107.362 107.236C105.269 107.303 102.705 111.874 105 115.103C105 115.103 104.756 115.399 104.45 115.967C104.146 116.534 103.778 117.381 103.534 118.476C101.256 116.673 99.5333 114.229 101.017 109.993C101.952 107.331 104.481 103.953 107.24 101.496C108.872 100.042 110.582 98.9055 112.088 98.4297C116.137 97.1519 117.556 97.8248 118.933 99.371C118.933 99.371 122.413 97.0182 125.114 96.615C127.812 96.2117 130.647 96.2785 135.17 99.3042C139.694 102.329 139.694 107.64 138.816 111.54C137.94 115.439 135.714 115.774 134.227 119.337Z" fill="#713B23"/>
<path d="M119.869 148.924C119.892 148.903 119.854 148.896 119.775 148.896C119.823 148.927 119.854 148.936 119.869 148.924Z" fill="#3C64AF"/>
<path d="M113.283 107.133C113.283 107.133 116.459 107.815 117.549 109.849C118.638 111.884 119.661 111.487 120.136 110.579C120.612 109.669 118.025 106.208 113.283 107.133Z" fill="#653820"/>
<path d="M123.602 115.744C123.433 115.195 124.553 114.257 126.434 114.926C128.316 115.597 129.312 117.984 128.855 120.463C128.855 120.463 128.536 118.091 126.599 117.058C124.66 116.023 123.845 116.533 123.602 115.744Z" fill="#653820"/>
<path d="M109.953 122.004L116.656 128.011C116.656 128.011 113.061 129.669 111.033 127.023C109.007 124.38 109.953 122.004 109.953 122.004Z" fill="white"/>
<path d="M105.722 112.558C105.703 112.558 105.687 112.554 105.672 112.546C105.623 112.518 105.606 112.456 105.634 112.408C106.722 110.491 106.566 108.988 106.565 108.972C106.558 108.918 106.598 108.867 106.654 108.861C106.712 108.857 106.76 108.895 106.766 108.949C106.772 109.013 106.934 110.529 105.809 112.508C105.791 112.539 105.755 112.558 105.722 112.558Z" fill="#9A3222"/>
<path d="M106.045 111.923C106.027 111.923 106.01 111.918 105.993 111.908C105.717 111.742 105.246 111.269 105.443 110.677C105.513 110.47 105.637 110.322 105.813 110.237C106.154 110.069 106.565 110.209 106.582 110.214C106.635 110.234 106.663 110.291 106.643 110.342C106.626 110.395 106.568 110.423 106.516 110.405C106.513 110.403 106.165 110.287 105.902 110.418C105.776 110.479 105.688 110.587 105.636 110.741C105.439 111.331 106.092 111.73 106.096 111.735C106.146 111.764 106.16 111.826 106.13 111.873C106.114 111.905 106.079 111.923 106.045 111.923Z" fill="#9A3222"/>
<path d="M117.707 124.078C117.707 124.078 117.706 124.078 117.704 124.078C117.677 124.077 114.817 123.906 114.817 121.063C114.817 121.009 114.863 120.963 114.921 120.963C114.976 120.963 115.02 121.009 115.02 121.063C115.02 123.476 117.158 123.824 117.627 123.87C118.373 120.094 120.543 117.164 121.787 116.362C121.834 116.332 121.898 116.345 121.928 116.392C121.956 116.439 121.943 116.501 121.898 116.533C120.673 117.319 118.53 120.238 117.81 123.996C117.8 124.044 117.756 124.078 117.707 124.078Z" fill="#9A3222"/>
<path d="M79.5688 148.058C79.5341 148.058 79.5005 148.039 79.482 148.009C77.6382 144.945 79.3409 139 79.4843 138.781C79.5155 138.735 79.5768 138.722 79.6231 138.753C79.6717 138.781 79.6833 138.847 79.6543 138.892C79.5121 139.119 77.8487 144.905 79.6567 147.905C79.6844 147.955 79.6705 148.015 79.6208 148.045C79.6035 148.053 79.5861 148.058 79.5688 148.058Z" fill="#02292E"/>
<path d="M99.1539 160.365C95.0639 160.365 90.8767 157.797 90.8304 157.769C90.7841 157.74 90.7691 157.678 90.7992 157.631C90.8281 157.582 90.8905 157.568 90.9368 157.598C90.9854 157.628 95.8412 160.607 100.153 160.108C100.208 160.103 100.26 160.141 100.267 160.195C100.27 160.252 100.233 160.303 100.176 160.308C99.8387 160.346 99.4952 160.365 99.1539 160.365Z" fill="#02292E"/>
<path d="M112.815 115.137C113.253 115.453 114.122 115.002 114.757 114.13C115.391 113.257 115.55 112.294 115.112 111.978C114.674 111.661 113.804 112.112 113.17 112.985C112.535 113.857 112.376 114.821 112.815 115.137Z" fill="#02292E"/>
<path d="M122.272 121.787C122.71 122.104 123.579 121.653 124.214 120.78C124.849 119.908 125.008 118.945 124.57 118.628C124.132 118.312 123.262 118.763 122.627 119.635C121.993 120.507 121.833 121.471 122.272 121.787Z" fill="#02292E"/>
<path d="M130.307 59.3859C130.139 59.3859 129.97 59.3421 129.815 59.2488L112.565 48.7617C112.119 48.491 111.977 47.9126 112.25 47.4678C112.522 47.0243 113.102 46.8848 113.548 47.1545L130.801 57.6415C131.246 57.9123 131.389 58.4907 131.114 58.9354C130.937 59.2246 130.626 59.3859 130.307 59.3859Z" fill="#444444"/>
<path d="M185.753 154.984C185.338 154.984 184.958 154.71 184.843 154.292L179.322 134.391C179.185 133.89 179.48 133.372 179.982 133.233C180.484 133.093 181.007 133.39 181.143 133.89L186.665 153.792C186.803 154.292 186.508 154.81 186.006 154.95C185.923 154.973 185.838 154.984 185.753 154.984Z" fill="#444444"/>
<path d="M183.235 140.931C182.986 141.052 180.401 142.342 180.805 143.015C181.211 143.688 183.841 143.015 183.841 143.015C183.841 143.015 181.682 143.824 182.02 144.832C182.357 145.839 184.451 144.832 184.451 144.832C184.451 144.832 182.247 145.166 182.606 146.312C182.965 147.455 184.798 147.05 184.798 147.05C184.798 147.05 183.506 147.589 183.774 148.598C184.045 149.606 188.973 148.194 188.634 147.387C188.299 146.58 186.264 146.915 186.264 146.915C186.264 146.915 188.501 146.244 188.163 145.369C187.825 144.494 185.869 144.355 185.869 144.355C185.869 144.355 187.868 143.687 187.556 142.611C187.243 141.536 185.397 142.274 185.397 142.274C185.397 142.274 187.082 140.728 186.611 140.057C186.137 139.385 183.867 140.627 183.235 140.931Z" fill="#F4ABA3"/>
<path d="M183.707 137.434C182.948 136.954 179.923 138.841 179.15 140.694C178.376 142.545 179.357 143.981 181.701 141.818C184.045 139.653 184.45 137.905 183.707 137.434Z" fill="#F4ABA3"/>
<path d="M120.458 47.2639C119.514 47.0623 118.028 50.2215 118.163 52.3738C118.296 54.526 119.443 54.0548 119.92 52.7091C119.92 52.7091 119.648 54.8648 120.459 55.1321C121.269 55.4005 122.078 53.1146 122.078 53.1146C122.078 53.1146 121.809 55.4005 122.415 55.669C123.023 55.9386 124.372 54.2576 124.372 54.2576C124.372 54.2576 122.955 56.1402 124.372 56.6103C125.791 57.0804 128.085 51.8369 127.41 51.0972C126.736 50.3575 125.318 52.6434 125.318 52.6434C125.318 52.6434 125.248 50.0879 124.509 49.7526C123.765 49.4173 122.844 51.0292 122.844 51.0292C122.844 51.0292 123.158 49.2813 122.348 48.8113C121.539 48.34 120.796 50.6259 120.796 50.6259C120.796 50.6259 121.404 47.4655 120.458 47.2639Z" fill="#F4ABA3"/>
<path d="M117.196 285.923C117.286 286.19 114.946 285.472 114.946 285.472C114.946 285.472 113.055 281.618 112.067 279.108C111.911 278.705 111.207 277.227 110.115 274.977C110.115 274.977 110.115 274.975 110.114 274.97C109.284 271.007 108.246 265.731 107.387 259.475C105.497 245.699 96.6786 238.677 93.9326 225.231C91.558 213.596 86.7241 185.058 85.2332 172.033C85.9862 171.901 86.4778 171.76 86.5749 171.646C86.6559 171.556 86.6998 171.392 86.716 171.191C86.716 171.191 91.9952 193.408 93.6157 200.846C95.2374 208.287 100.278 227.381 100.278 227.381C100.278 227.381 100.278 227.381 103.967 231.327C107.656 235.269 111.888 237.244 114.587 250.691C117.286 264.139 117.106 285.653 117.196 285.923Z" fill="#686868"/>
<path d="M69.9486 186.146C69.9486 186.146 67.427 196.097 65.537 205.419C63.6458 214.743 61.5788 226.127 61.1288 235.9C60.6777 245.671 58.3377 285.83 58.3377 285.83C58.222 285.962 58.0786 286.078 57.9259 286.175C57.7698 277.195 57.4552 259.394 57.9745 246.747C58.6974 229.177 62.4787 198.158 69.9486 186.146Z" fill="#686868"/>
<path d="M109.075 51.6822C110.71 52.5708 113.2 51.1657 114.636 48.5438C116.072 45.9219 115.91 43.076 114.275 42.1874C112.64 41.2988 110.15 42.7039 108.714 45.3258C107.278 47.9478 107.44 50.7936 109.075 51.6822Z" fill="#D7DAD9"/>
<path d="M181.866 155.092C182.533 156.596 185.045 156.947 187.475 155.876C189.905 154.806 191.333 152.719 190.665 151.215C189.998 149.711 187.487 149.36 185.057 150.43C182.627 151.501 181.198 153.588 181.866 155.092Z" fill="#DDDCDC"/>
<path d="M110.325 49.5555C110.108 49.5555 109.908 49.5072 109.728 49.4127C108.779 48.908 108.701 47.1982 109.554 45.6013C110.235 44.3293 111.311 43.4755 112.229 43.4755C112.447 43.4755 112.647 43.5239 112.826 43.6184C113.293 43.8684 113.569 44.4088 113.593 45.1404C113.618 45.8513 113.409 46.6647 112.999 47.4298C112.321 48.7018 111.247 49.5555 110.325 49.5555ZM112.23 43.6783C111.395 43.6783 110.37 44.509 109.735 45.6969C108.934 47.1959 108.974 48.7836 109.824 49.2341C109.975 49.3136 110.144 49.3539 110.326 49.3539C111.16 49.3539 112.187 48.5232 112.823 47.3342C113.215 46.6002 113.417 45.8225 113.392 45.1473C113.37 44.4906 113.134 44.0124 112.732 43.7981C112.582 43.7198 112.413 43.6783 112.23 43.6783Z" fill="#9B9A9A"/>
<path d="M185.403 155.077C184.6 155.077 183.982 154.766 183.752 154.246C183.559 153.812 183.647 153.289 184 152.775C184.341 152.278 184.894 151.84 185.558 151.548C186.076 151.321 186.618 151.199 187.124 151.199C187.927 151.199 188.545 151.511 188.778 152.031C188.969 152.464 188.881 152.986 188.529 153.501C188.187 154.001 187.635 154.437 186.97 154.728C186.451 154.956 185.909 155.077 185.403 155.077ZM187.123 151.401C186.646 151.401 186.134 151.517 185.639 151.734C185.009 152.011 184.487 152.422 184.166 152.891C183.856 153.345 183.774 153.796 183.939 154.164C184.135 154.608 184.684 154.876 185.404 154.876C185.883 154.876 186.395 154.761 186.889 154.544C187.517 154.266 188.04 153.855 188.361 153.386C188.673 152.932 188.754 152.479 188.592 152.113C188.393 151.667 187.843 151.401 187.123 151.401Z" fill="#9B9A9A"/>
<path d="M122.214 135.878C121.672 138.768 119.647 139.44 117.198 141.524C114.899 143.481 119.066 148.452 119.777 148.896C119.074 148.902 114.692 149.556 111.467 148.072C110.73 147.735 110.156 147.35 109.716 146.936C107.999 145.33 108.301 143.278 109.052 141.727C109.996 139.778 109.726 137.828 109.726 137.828C109.726 137.828 109.455 137.491 107.385 136.229L110.617 132.823C111.505 133.089 112.485 133.292 113.573 133.458C114.812 133.646 116.021 133.631 117.18 133.458C119.066 133.179 120.809 132.474 122.321 131.517C122.444 132.304 122.584 133.88 122.214 135.878Z" fill="#713B23"/>
<path opacity="0.3" d="M112.562 141.43C110.42 142.346 109.248 144.656 109.716 146.937C107.999 145.331 108.301 143.279 109.052 141.728C109.996 139.779 109.726 137.829 109.726 137.829C109.726 137.829 109.455 137.492 107.385 136.23L110.617 132.824C111.505 133.09 112.485 133.293 113.573 133.459C114.812 133.647 116.021 133.632 117.18 133.459C117.592 136.555 114.952 140.409 112.562 141.43Z" fill="#713B23"/>
<path opacity="0.3" d="M132.316 116.869C129.256 120.171 130.085 122.931 129.935 125.583C128.909 125.147 128.179 124.7 128.179 124.7H128.177C129.792 121.777 131.093 118.246 131.189 114.025C131.324 108.109 129.77 106.429 128.016 104.95C124.948 102.363 117.353 102.461 108.913 108.715C108.913 108.715 109.454 107.169 107.362 107.236C105.269 107.303 102.705 111.874 105 115.103C105 115.103 104.756 115.399 104.45 115.967C104.146 116.534 103.778 117.381 103.534 118.476C101.256 116.673 99.5333 114.229 101.017 109.993C101.952 107.331 104.481 103.953 107.24 101.496C110.879 101.491 114.591 102.19 117.228 102.536C123.558 103.37 125.473 100.267 130.756 102.536C136.042 104.802 135.733 113.174 132.316 116.869Z" fill="#713B23"/>
<defs>
<linearGradient id="paint0_linear" x1="169.574" y1="225.021" x2="172.04" y2="225.021" gradientUnits="userSpaceOnUse">
<stop offset="1.953e-05" stop-color="#EF443F"/>
<stop offset="0.995" stop-color="#EF384A"/>
</linearGradient>
</defs>
</svg>
