<svg width="316" height="258" viewBox="0 0 316 258" fill="none" xmlns="http://www.w3.org/2000/svg">
<path d="M56.644 235.679C56.644 235.679 74.418 242.496 122.676 236.914C122.676 236.914 77.437 232.918 56.644 235.679Z" fill="#D7DAD9"/>
<path d="M182.977 236.012C182.977 236.012 200.751 242.83 249.009 237.248C249.009 237.248 203.77 233.25 182.977 236.012Z" fill="#D7DAD9"/>
<path d="M132.82 121.464C132.216 126.943 131.091 131.659 130.286 134.569C129.75 136.524 129.355 137.657 129.355 137.657C128.482 136.962 126.209 136.407 125.235 136.198C125.067 136.155 124.942 136.132 124.857 136.113C124.807 136.096 124.774 136.096 124.774 136.096C124.774 136.096 124.564 135.325 124.253 134.066C123.649 131.674 122.684 127.504 122.097 123.468C121.2 117.326 123.431 110.068 123.431 110.068C121.702 109.347 118.203 106.569 115.326 104.144C114.965 103.842 114.613 103.54 114.286 103.247C112.39 101.628 110.946 100.318 110.804 100.193C110.905 100.469 111.047 105.613 110.2 114.524C109.721 119.626 109.244 127.429 109.244 127.429C109.244 127.429 102.447 128.024 99.972 128.36C96.792 128.797 92.74 129.166 89.031 128.948C84.333 128.671 80.355 127.496 78.007 126.632C76.571 126.104 73.861 125.004 73.861 125.004C73.861 124.912 74.29 101.804 74.29 101.804C73.509 100.907 71.965 95.67 71.965 95.67C71.965 95.67 71.235 97.751 69.465 100.588C68.861 101.535 68.148 102.567 67.309 103.633C66.939 104.103 66.545 104.581 66.118 105.061C61.881 109.86 52.063 116.438 52.063 116.438C52.063 116.438 49.269 115.541 46.256 107.393C44.561 102.802 43.747 98.289 43.354 95.209C43.059 92.826 43.018 91.308 43.018 91.308L44.361 91.661L44.999 91.828H45.007L50.167 93.204C50.436 93.758 50.771 94.371 51.141 94.983C52.475 97.199 54.187 99.456 54.187 99.456C54.522 98.625 55.076 97.744 55.722 96.871C56.704 95.545 58.054 93.129 59.548 90.461C61.948 86.165 64.717 81.239 66.923 79.243C69.953 76.49 75.315 76.481 76.866 76.54C77.152 76.55 77.31 76.558 77.31 76.558C78.158 76.273 79.341 75.484 80.289 74.359C80.432 74.192 80.566 74.007 80.701 73.823C80.76 73.739 80.809 73.664 80.869 73.58C82.799 72.984 84.611 71.582 86.432 69.602C89.704 66.028 89.704 63.343 89.931 61.706C89.637 64.827 90.107 68.788 93.195 71.011C93.648 71.339 94.16 71.632 94.73 71.867C95.083 72.018 95.46 72.161 95.846 72.304C99.345 73.587 103.825 74.452 105.588 74.762C106.074 74.837 106.352 74.888 106.352 74.888C106.352 74.888 108.675 74.15 111.789 75.023C113.039 75.367 114.424 75.979 115.842 77.011C120.759 80.585 122.396 87.516 122.396 87.516C122.496 87.642 122.588 87.777 122.681 87.911C128.756 96.284 132.263 108.392 132.263 108.392C132.263 108.392 133.818 112.301 132.82 121.464Z" fill="#F2B6AC"/>
<path d="M125.235 136.198C125.067 136.155 124.942 136.132 124.857 136.113C124.807 136.096 124.774 136.096 124.774 136.096C124.774 136.096 124.564 135.325 124.253 134.066C123.649 131.674 122.684 127.504 122.097 123.468C121.2 117.326 123.431 110.068 123.431 110.068C121.702 109.347 118.203 106.569 115.326 104.144C114.965 103.842 114.613 103.54 114.286 103.247C114.739 101.157 115.099 99.102 115.099 99.102C118.07 103.406 125.445 110.227 125.445 110.227C125.445 110.227 124.782 117.142 124.363 122.394C124.043 126.406 124.849 133.219 125.235 136.198Z" fill="#F6958F"/>
<path d="M135.78 141.209C135.801 141.969 135.738 142.674 135.602 143.334C134.781 147.326 131.312 149.428 127.608 149.428C123.294 149.428 119.796 145.93 119.796 141.615C119.796 137.299 123.293 133.801 127.608 133.801C128.108 133.801 128.601 133.842 129.08 133.924C132.744 134.536 135.687 137.394 135.78 141.209Z" fill="#DDDCDC"/>
<path d="M89.995 128.99C89.668 128.981 89.349 128.965 89.029 128.948C88.559 128.923 88.106 128.881 87.653 128.839C87.435 128.814 87.225 128.797 87.007 128.764C87.15 119.14 86.671 98.381 86.671 98.381C86.671 98.381 87.443 102.568 88.173 108.005C88.803 112.678 89.516 124.249 89.995 128.99Z" fill="#AE1E45"/>
<path d="M122.676 87.909C119.941 92.222 117.843 97.155 116.441 100.931C115.998 102.139 115.62 103.23 115.326 104.144C112.96 102.147 111.013 100.377 110.811 100.209C110.811 100.226 110.811 100.234 110.82 100.26C110.854 100.528 110.887 101.459 110.871 102.945V102.969C110.854 105.462 110.703 109.489 110.199 114.524C109.695 119.626 109.243 127.429 109.243 127.429C109.243 127.429 102.446 128.024 99.971 128.36C99.401 128.435 98.805 128.511 98.184 128.578C95.642 128.881 92.755 129.082 89.996 128.99C89.669 128.981 89.35 128.965 89.03 128.948C88.56 128.923 88.107 128.881 87.654 128.839C87.436 128.814 87.226 128.797 87.008 128.764C83.198 128.335 80.01 127.37 78.005 126.632C76.569 126.104 73.859 125.004 73.859 125.004C73.859 124.912 74.288 101.804 74.288 101.804C73.825 101.276 73.104 99.245 72.584 97.659C72.315 96.845 72.105 96.148 72.005 95.839C71.996 95.814 71.988 95.788 71.988 95.772C71.98 95.747 71.98 95.73 71.97 95.713C71.962 95.688 71.962 95.67 71.962 95.67C71.962 95.67 70.661 99.379 67.306 103.633C66.928 102.945 66.433 102.048 65.87 101.04C63.949 97.575 61.196 92.759 59.544 90.46C61.944 86.164 64.713 81.238 66.919 79.242C68.11 78.159 69.654 77.504 71.19 77.11C71.19 77.11 71.215 77.101 71.265 77.085C71.945 76.918 72.617 76.791 73.253 76.707C73.304 76.699 73.346 76.699 73.396 76.691C73.405 76.691 73.421 76.691 73.447 76.681C74.94 76.505 76.224 76.514 76.862 76.538C77.148 76.548 77.306 76.556 77.306 76.556C78.154 76.271 79.337 75.482 80.285 74.357C80.555 74.744 80.948 75.189 81.486 75.599C82.727 76.573 84.783 77.412 88.08 77.11C92.167 76.741 94.516 74.357 95.842 72.302C95.935 72.335 96.035 72.368 96.136 72.402C99.584 73.636 103.872 74.459 105.584 74.76C106.07 74.835 106.348 74.886 106.348 74.886C106.348 74.886 107.128 74.634 108.395 74.601C109.309 74.576 110.476 74.652 111.785 75.021C113.035 75.365 114.42 75.977 115.838 77.009C120.755 80.583 122.392 87.514 122.392 87.514C122.491 87.641 122.583 87.775 122.676 87.909Z" fill="#474647"/>
<path d="M69.462 100.588C68.858 101.535 68.145 102.567 67.306 103.633C66.936 104.103 66.542 104.581 66.115 105.061C61.878 109.86 52.06 116.438 52.06 116.438C52.06 116.438 49.266 115.541 46.253 107.393C44.558 102.802 43.744 98.289 43.351 95.209C43.056 92.826 43.015 91.308 43.015 91.308L44.358 91.661C45.247 98.214 45.759 102.904 48.142 107.023C50.734 111.487 52.806 112.654 52.806 112.654C52.806 112.654 65.392 103.861 68.077 97.811L69.462 100.588Z" fill="#F6958F"/>
<path d="M66.118 233.59L68.081 234.889L68.309 235.035L68.523 235.179C68.523 235.179 68.917 234.053 69.559 232.178C72.143 224.609 78.748 204.898 79.58 198.418C80.622 190.336 77.498 185.264 77.498 185.264C77.498 185.264 80.428 176.325 82.184 167.821C83.291 162.452 85.618 153.473 87.183 147.607L87.209 147.506C87.59 146.076 87.923 144.856 88.178 143.897V143.894C88.532 142.586 88.745 141.816 88.745 141.816L88.845 141.876L88.856 141.882L88.866 141.889L89.225 142.091L90.083 142.585C90.092 142.63 90.108 142.675 90.119 142.721C94.846 161.325 94.85 161.216 96.625 170.538C98.315 179.403 100.917 187.407 102.739 195.559C103.671 199.734 105.872 209.747 107.792 218.521C109.619 226.869 111.196 234.091 111.196 234.091L112.414 234.298L112.674 234.349L114.12 234.603C114.12 234.603 118.221 204.427 116.92 196.847C115.62 189.27 110.806 182.692 110.806 182.692C110.806 182.692 111.848 157.888 111.586 148.953C111.536 147.19 111.416 145.293 111.248 143.375C111.242 143.248 111.227 143.123 111.217 142.996C110.764 137.776 110.021 132.491 109.587 129.621C109.572 129.52 109.557 129.42 109.541 129.33C109.358 128.133 109.245 127.434 109.245 127.434C109.245 127.434 108.891 127.493 108.255 127.598C106.903 127.811 104.274 128.186 101.038 128.47C100.949 128.473 100.859 128.486 100.773 128.492C98.023 128.718 94.864 128.872 91.685 128.791C90.192 128.76 88.697 128.627 87.241 128.434C87.14 128.414 87.048 128.402 86.951 128.392C84.124 128.002 81.459 127.373 79.279 126.776C79.191 126.748 79.104 126.721 79.013 126.702C75.907 125.824 73.856 125.009 73.856 125.009C73.856 125.009 73.748 125.819 73.575 127.118C73.56 127.212 73.545 127.306 73.534 127.402C73.17 130.064 72.565 134.477 72.032 138.31C72.009 138.463 71.983 138.62 71.961 138.774C71.755 140.268 71.551 141.669 71.386 142.807C70.541 148.524 68.264 173.403 67.741 181.694C67.221 189.982 66.118 233.59 66.118 233.59Z" fill="#CD5441"/>
<path d="M107.792 218.519C109.619 226.866 111.196 234.088 111.196 234.088L112.414 234.297L112.674 234.347L114.12 234.601C114.12 234.601 118.221 204.424 116.92 196.845C115.62 189.268 110.806 182.69 110.806 182.69C110.806 182.69 111.848 157.885 111.586 148.95C111.536 147.188 111.416 145.292 111.248 143.372C111.242 143.247 111.227 143.12 111.217 142.995C110.764 137.774 110.021 132.489 109.587 129.618C109.572 129.518 109.557 129.419 109.541 129.329C109.358 128.131 109.245 127.432 109.245 127.432C109.245 127.432 108.891 127.491 108.255 127.596C108.48 134.918 108.656 151.174 108.439 166.25C108.204 181.977 108.824 186.842 108.824 186.842C108.824 186.842 114.164 204.435 107.792 218.519Z" fill="#BD4539"/>
<path d="M88.865 141.813L88.844 141.876L88.855 141.882C88.859 141.831 88.865 141.813 88.865 141.813Z" fill="#8A2E28"/>
<path d="M69.558 232.178C72.142 224.609 78.747 204.898 79.579 198.418C80.621 190.336 77.497 185.264 77.497 185.264C77.497 185.264 80.427 176.325 82.183 167.821C83.29 162.452 85.617 153.473 87.182 147.607L87.208 147.506C87.589 146.076 87.922 144.856 88.177 143.897L74.848 184.297C74.848 184.297 75.417 189.983 75.286 201.774C75.194 210.106 71.64 224.461 69.558 232.178Z" fill="#BD4539"/>
<path d="M71.96 138.77C74.464 136.261 76.842 131.864 78.3 128.853C80.88 129.528 84.061 130.206 87.666 130.65C88.244 132.497 89.014 134.999 89.41 136.27C89.425 136.329 89.477 136.37 89.536 136.37C89.545 136.37 89.561 136.37 89.576 136.364C89.644 136.335 89.68 136.255 89.653 136.18C89.078 134.301 88.438 132.241 87.948 130.682C88.511 130.746 89.078 130.808 89.648 130.86C91.512 131.038 93.356 131.104 95.128 131.104C97.44 131.104 99.635 130.986 101.603 130.805C102.43 132.905 103.686 135.657 105.24 137.61C106.428 139.09 107.9 140.515 109.221 141.674C109.436 143.405 109.591 145.256 109.632 147.164C109.825 156.141 109.699 184.762 109.696 185.047C109.696 185.086 109.711 185.123 109.731 185.145C109.769 185.191 113.51 189.883 114.616 200.106C115.585 208.993 113.107 228.993 112.412 234.297L112.672 234.347C113.364 229.027 115.848 208.996 114.879 200.071C113.818 190.276 110.342 185.495 109.955 184.995C109.967 183.595 110.08 155.952 109.893 147.159C109.855 145.37 109.71 143.61 109.508 141.927C110.152 142.483 110.749 142.976 111.245 143.372C111.239 143.247 111.224 143.12 111.214 142.995C110.705 142.585 110.1 142.085 109.461 141.523C108.736 135.879 107.347 131.305 106.88 130.133C108.023 129.944 108.943 129.762 109.584 129.617C109.569 129.516 109.554 129.416 109.538 129.326C108.898 129.465 107.95 129.658 106.754 129.858C106.748 129.843 106.739 129.836 106.739 129.836C106.676 129.797 106.597 129.816 106.561 129.889C105.229 130.111 103.605 130.334 101.774 130.51C101.455 129.686 101.205 128.973 101.035 128.466C100.946 128.469 100.856 128.482 100.77 128.488C100.934 128.985 101.18 129.698 101.498 130.534C98.1 130.847 93.996 130.978 89.675 130.579C89.055 130.523 88.451 130.452 87.86 130.386C87.567 129.46 87.343 128.757 87.239 128.431C87.138 128.411 87.046 128.399 86.949 128.389C86.984 128.476 87.234 129.28 87.572 130.351C84.059 129.912 80.952 129.253 78.428 128.589C78.766 127.879 79.052 127.263 79.277 126.773C79.189 126.745 79.102 126.718 79.011 126.699C78.786 127.19 78.495 127.812 78.158 128.521C76.261 128.019 74.707 127.508 73.572 127.115C73.557 127.209 73.542 127.303 73.531 127.399C74.654 127.795 76.178 128.279 78.026 128.776C76.617 131.673 74.369 135.813 72.029 138.307C72.008 138.459 71.983 138.616 71.96 138.77ZM101.879 130.778C103.681 130.607 105.287 130.39 106.616 130.174C106.906 130.985 108.39 135.416 109.165 141.256C107.917 140.14 106.547 138.805 105.438 137.414C103.92 135.521 102.693 132.85 101.879 130.778Z" fill="#1E1725"/>
<path d="M68.081 234.889L68.309 235.035C68.35 234.889 68.403 234.725 68.455 234.543C71.727 223.352 73.805 215.422 74.639 210.98C74.892 209.602 75.179 208.248 75.46 206.937C76.833 200.486 78.135 194.394 76.202 184.936L87.182 147.605L87.208 147.505L88.864 141.885L88.869 141.859C88.874 141.843 88.869 141.826 88.864 141.811L89.223 142.087L90.009 142.704C90.03 142.716 90.055 142.728 90.081 142.728C90.09 142.728 90.106 142.728 90.117 142.715C90.143 142.711 90.17 142.694 90.19 142.666C90.231 142.603 90.217 142.512 90.159 142.463L87.134 140.109C87.078 140.064 86.994 140.077 86.952 140.141C86.911 140.205 86.928 140.293 86.984 140.336L88.707 141.686C88.67 141.7 88.635 141.722 88.62 141.774L75.941 184.883C75.935 184.904 75.935 184.934 75.941 184.953C77.865 194.375 76.577 200.442 75.202 206.867C74.928 208.18 74.637 209.541 74.374 210.918C73.553 215.352 71.476 223.276 68.202 234.455C68.158 234.624 68.117 234.77 68.081 234.889Z" fill="#1E1725"/>
<path d="M114.123 234.605C114.123 234.605 110.806 232.659 107.75 232.803C104.689 232.946 103.521 236.114 103.521 236.114L114.124 236.163L114.123 234.605Z" fill="#F2B6AC"/>
<path d="M68.522 235.176C68.522 235.176 66.115 232.102 62.862 232.174C59.61 232.246 56.943 235.976 56.943 235.976C56.943 235.976 67.611 236.243 68.522 236.138V235.176Z" fill="#F2B6AC"/>
<path opacity="0.3" d="M125.315 109.188C125.351 109.107 125.367 109.063 125.367 109.063C125.367 109.063 125.415 109.14 125.315 109.188Z" fill="#EA6F38"/>
<path d="M93.195 71.011C88.38 71.271 83.533 72.732 80.694 73.824C80.754 73.743 80.805 73.662 80.861 73.582C82.795 72.988 84.61 71.581 86.427 69.602C89.7 66.028 89.7 63.346 89.923 61.707C89.633 64.822 90.105 68.791 93.195 71.011Z" fill="#F6958F"/>
<path d="M51.024 82.397C51.024 86.209 47.937 89.298 44.125 89.298C41.067 89.298 38.479 87.311 37.571 84.557C37.343 83.876 37.223 83.151 37.223 82.397C37.223 82.144 37.237 81.894 37.264 81.651C37.633 78.19 40.566 75.494 44.124 75.494C44.389 75.494 44.647 75.508 44.903 75.539C45.977 75.659 46.982 76.026 47.849 76.586C49.761 77.813 51.024 79.956 51.024 82.397Z" fill="#C9C9C9"/>
<path d="M56.192 86.647C55.686 90.486 52.033 93.868 46.958 93.137C42.359 92.474 40.09 89.748 40.047 86.383C40.039 86.034 40.06 85.681 40.104 85.322C40.173 84.754 40.287 84.212 40.447 83.692C41.359 80.71 43.711 78.626 46.595 78.236C49.962 77.78 52.405 78.784 53.99 80.375C55.118 81.502 55.811 82.928 56.096 84.334C56.256 85.131 56.288 85.921 56.192 86.647Z" fill="#DDDCDC"/>
<path d="M46.636 79.677C43.845 80.055 41.657 82.355 41.281 85.523C40.903 88.691 42.751 91.368 46.937 91.971C51.123 92.574 54.139 89.783 54.555 86.616C54.97 83.448 52.496 78.886 46.636 79.677Z" fill="#9B9A9A"/>
<path d="M48.032 90.532C50.6697 90.532 52.808 88.3937 52.808 85.756C52.808 83.1183 50.6697 80.98 48.032 80.98C45.3943 80.98 43.256 83.1183 43.256 85.756C43.256 88.3937 45.3943 90.532 48.032 90.532Z" fill="#DDDCDC"/>
<path d="M132.677 146.7C132.271 148.018 131.575 149.075 130.662 149.861C129.524 150.84 128.049 151.402 126.383 151.525C122.398 151.813 119.083 149.771 117.998 146.577C116.712 142.77 117.784 139.845 119.684 137.982C120.68 137.003 121.904 136.319 123.131 135.95C123.136 135.95 123.139 135.948 123.139 135.948C123.695 135.782 124.251 135.681 124.79 135.65C128.782 135.403 132.888 138.307 133.07 143.374C133.116 144.62 132.973 145.731 132.677 146.7Z" fill="#C9C9C9"/>
<path d="M119.455 146.258C120.348 148.897 123.084 150.58 126.37 150.342C129.657 150.104 132.04 147.797 131.889 143.617C131.738 139.436 128.351 137.041 125.058 137.244C121.763 137.447 117.58 140.721 119.455 146.258Z" fill="#9B9A9A"/>
<path d="M124.499 139.097C121.818 139.601 120.035 142.086 120.517 144.648C120.999 147.209 123.563 148.877 126.244 148.372C128.925 147.868 130.707 145.383 130.225 142.821C129.744 140.26 127.18 138.592 124.499 139.097Z" fill="#DDDCDC"/>
<path d="M74.547 63.34C74.547 63.34 76.267 69.168 78.066 70.02C78.066 70.02 79.462 67.731 82.485 68.163C84.529 68.446 86.084 69.385 86.878 69.956C87.249 70.229 87.457 70.422 87.457 70.422C87.457 70.422 90.418 70.575 91.711 65.829C93 61.072 94.217 58.311 93.904 54.573C93.862 54.087 93.791 53.618 93.69 53.165C93.026 50.188 91.214 48.147 89.986 47.468C88.564 46.679 87.583 47.191 85.541 48.228C85.057 48.474 84.453 48.713 83.79 48.926C83.788 48.927 83.788 48.927 83.782 48.935C81.667 49.618 78.958 50.042 77.58 49.627C75.761 49.075 72.998 48.411 73.076 49.501C73.084 49.581 73.095 49.689 73.118 49.819C73.234 50.53 73.558 51.889 73.847 53.381C74.189 55.14 74.492 57.088 74.362 58.376C74.451 60.041 74.496 61.782 74.547 63.34Z" fill="#F2B6AC"/>
<path d="M86.877 69.955C87.248 70.228 87.456 70.421 87.456 70.421C87.456 70.421 90.417 70.574 91.71 65.828C92.999 61.071 94.216 58.31 93.903 54.572C93.861 54.086 93.79 53.617 93.689 53.164C93.065 56.266 91.882 60.353 90.774 63.613C90.041 65.798 88.895 68.113 86.877 69.955Z" fill="#F6958F"/>
<path d="M73.118 49.818C74.812 51.042 78.39 52.338 83.782 48.933C81.667 49.616 78.958 50.04 77.58 49.625C75.761 49.073 72.998 48.409 73.076 49.499C73.083 49.58 73.094 49.688 73.118 49.818Z" fill="#F6958F"/>
<path d="M97.067 52.996C98.591 53.376 99.253 60.123 94.603 60.387C94.752 57.782 95.444 55.252 96.044 53.243C96.324 53.013 96.663 52.895 97.067 52.996Z" fill="#F2B6AC"/>
<path d="M90.847 53.35C91.04 52.573 89.552 51.803 87.034 51.996C84.513 52.187 83.806 53.297 83.806 53.297C83.806 53.297 83.737 53.897 86.22 53.568C88.701 53.236 90.847 53.35 90.847 53.35Z" fill="#451312"/>
<path d="M77.798 54.264C78.317 53.743 75.619 52.694 73.379 53.484L73.62 54.577C73.621 54.576 77.138 54.922 77.798 54.264Z" fill="#451312"/>
<path d="M74.547 63.34C74.027 66.551 74.124 70.082 78.094 72.135C78.456 72.323 78.845 72.487 79.251 72.625C80.423 73.039 81.732 73.258 83.074 73.328C85.473 73.448 87.936 73.041 89.77 72.277C89.915 72.216 90.065 72.16 90.197 72.093C90.369 72.012 90.523 71.929 90.679 71.841C90.94 71.695 91.184 71.544 91.399 71.381C94.161 69.306 94.624 65.763 94.574 61.564C94.567 61.169 94.582 60.781 94.605 60.388C94.749 57.779 95.442 55.255 96.043 53.245C96.316 52.329 96.566 51.523 96.737 50.87C97.353 48.566 96.213 44.847 92.186 41.794L92.181 41.795C92.171 41.783 92.171 41.783 92.163 41.778C88.119 38.721 84.437 38.31 80.97 38.84C77.781 39.328 72.796 41.606 70.711 43.745C70.294 44.172 70.063 44.735 69.96 45.379C69.543 47.97 71.282 51.89 72.008 53.49C72.457 54.488 73.047 55.706 73.522 56.676C74.001 57.643 74.36 58.373 74.36 58.373C74.62 55.795 73.157 50.586 73.074 49.498C72.996 48.408 75.759 49.072 77.578 49.624C79.391 50.17 83.495 49.262 85.539 48.225C87.581 47.188 88.562 46.676 89.984 47.465C91.272 48.174 93.197 50.382 93.774 53.588L93.775 53.595C93.832 53.913 93.875 54.234 93.902 54.571C94.215 58.309 92.998 61.07 91.709 65.827C91.016 68.356 89.855 69.499 88.92 70.01C88.914 70.011 88.914 70.011 88.912 70.019C88.094 70.457 87.455 70.42 87.455 70.42C87.455 70.42 85.509 68.584 82.483 68.161C79.46 67.729 78.064 70.018 78.064 70.018C76.267 69.168 74.547 63.34 74.547 63.34Z" fill="#591913"/>
<path d="M95.339 58.531C95.345 58.609 95.414 58.67 95.494 58.666C95.501 58.664 95.507 58.662 95.514 58.66C95.583 58.645 95.631 58.582 95.624 58.51C95.6 58.205 95.615 57.914 95.651 57.636C95.822 57.641 96.096 57.633 96.342 57.578C96.56 57.53 96.754 57.447 96.833 57.291C97.044 56.885 96.362 56.324 96.148 56.16C96.13 56.15 96.113 56.155 96.094 56.149C96.47 55.336 96.931 54.81 96.938 54.798C96.993 54.743 96.988 54.652 96.927 54.599C96.869 54.546 96.78 54.553 96.726 54.607C96.664 54.682 95.164 56.386 95.339 58.531ZM95.698 57.348C95.768 57.008 95.87 56.69 95.986 56.399C96.323 56.655 96.645 57.033 96.581 57.159C96.509 57.297 96.066 57.355 95.698 57.348Z" fill="#9A3222"/>
<path d="M80.596 63.736C81.221 63.597 81.931 63.291 82.622 62.669C82.68 62.613 82.683 62.523 82.632 62.465C82.579 62.407 82.488 62.401 82.431 62.453C81.028 63.728 79.501 63.578 79 63.487C79.244 62.987 79.949 61.429 80.163 59.568C80.427 57.298 79.063 54.445 79.006 54.326C78.972 54.254 78.89 54.222 78.815 54.26C78.746 54.294 78.716 54.377 78.749 54.449C78.763 54.476 80.132 57.347 79.88 59.535C79.625 61.736 78.674 63.497 78.662 63.515C78.643 63.552 78.641 63.599 78.655 63.636C78.675 63.678 78.706 63.71 78.745 63.718C78.798 63.733 79.579 63.961 80.596 63.736Z" fill="#9A3222"/>
<path d="M86.899 62.961C86.759 62.992 84.07 64.516 81.652 64.609C79.232 64.705 78.085 64.912 78.085 64.912C78.085 64.912 80.031 68.09 82.76 67.635C85.49 67.176 86.899 62.961 86.899 62.961Z" fill="white"/>
<path d="M87.059 56.346C87.223 57.334 87.619 58.086 87.941 58.032C88.267 57.979 88.397 57.137 88.236 56.155C88.071 55.171 87.675 54.417 87.352 54.471C87.026 54.523 86.895 55.365 87.059 56.346Z" fill="#601213"/>
<path d="M77.326 57.209C77.489 58.191 77.883 58.947 78.209 58.895C78.534 58.838 78.667 58 78.501 57.016C78.337 56.031 77.943 55.279 77.619 55.33C77.293 55.387 77.163 56.229 77.326 57.209Z" fill="#601213"/>
<path d="M79.251 72.625C80.423 73.039 81.732 73.258 83.074 73.328C85.473 73.448 87.936 73.041 89.77 72.277C89.915 72.216 90.065 72.16 90.197 72.093C90.369 72.012 90.523 71.929 90.679 71.841C90.94 71.695 91.184 71.544 91.399 71.381C94.161 69.306 94.624 65.763 94.574 61.564C94.567 61.169 94.582 60.781 94.605 60.388C94.749 57.779 95.442 55.255 96.043 53.245C96.316 52.329 96.566 51.523 96.737 50.87C97.353 48.566 96.213 44.847 92.186 41.794C93.651 44.952 94.398 49.013 93.774 53.589L93.775 53.596C93.832 53.914 93.875 54.235 93.902 54.572C94.215 58.31 92.998 61.071 91.709 65.828C91.016 68.357 89.855 69.5 88.92 70.011C88.914 70.012 88.914 70.012 88.912 70.02C87.318 71.377 83.753 72.903 79.251 72.625Z" fill="#451312"/>
<path d="M72.01 53.492C72.459 54.49 73.049 55.708 73.524 56.678C74.003 57.645 74.362 58.375 74.362 58.375C74.622 55.797 73.159 50.588 73.076 49.5C71.951 48.414 70.852 46.998 69.963 45.381C69.545 47.972 71.285 51.892 72.01 53.492Z" fill="#451312"/>
<path d="M73.381 89.772L72.583 97.659C72.314 96.845 72.104 96.148 72.004 95.839C71.995 95.814 71.987 95.788 71.987 95.772C71.979 95.747 71.979 95.73 71.969 95.713C71.961 95.688 71.961 95.67 71.961 95.67C71.961 95.67 70.66 99.379 67.305 103.633C66.927 102.945 66.432 102.048 65.869 101.04C67.968 98.264 72.709 91.777 73.381 89.772Z" fill="#686868"/>
<path d="M115.326 104.145C112.96 102.148 111.013 100.378 110.811 100.21C110.811 100.227 110.811 100.235 110.82 100.261C110.854 100.529 110.887 101.46 110.871 102.946L109.889 93.582L116.442 100.933C115.998 102.14 115.62 103.23 115.326 104.145Z" fill="#686868"/>
<path d="M197.852 175.295C197.616 176.279 196.526 180.566 197.143 189.273C197.762 197.977 197.942 208.064 197.852 212.577C197.762 217.089 196.584 221.524 196.584 221.524L204.988 220.249C204.988 220.249 203.954 217.686 205.494 212.111C207.034 206.54 211.519 185.913 210.48 178.542C209.441 171.168 197.852 175.295 197.852 175.295Z" fill="#F2B6AC"/>
<path d="M195.852 236.161C197.283 235.862 200.858 233.113 202.104 231.21C203.346 229.309 203.821 228.432 203.757 226.564C203.723 225.486 205.07 224.072 205.426 223.002L205.071 220.773L196.887 220.242C196.887 220.242 194.137 224.967 192.451 227.764C191.218 229.813 190.275 232.452 190.213 234.167C190.865 233.931 191.645 233.716 192.218 233.782C193.412 233.924 194.421 236.461 195.852 236.161Z" fill="#474647"/>
<path d="M199.238 235.437C202.318 232.818 203.74 230.999 204.773 228.635C205.806 226.271 205.425 223.004 205.425 223.004L205.249 221.901C203.599 223.326 203.722 225.485 203.756 226.563C203.819 228.429 203.345 229.306 202.103 231.209C200.857 233.112 197.282 235.861 195.851 236.16C194.42 236.461 193.412 233.924 192.217 233.785C191.644 233.719 190.864 233.931 190.212 234.168C190.189 234.752 190.269 235.231 190.474 235.537C191.938 237.723 196.156 238.057 199.238 235.437Z" fill="#BD4539"/>
<path d="M197.1 221.267C197.1 221.267 194.778 225.184 193.914 227.504C193.365 228.979 193.252 230.461 194.037 230.926C194.818 231.39 196.637 230.119 197.572 228.47C198.508 226.819 199.885 221.267 199.885 221.267H197.1Z" fill="#BD4539"/>
<path d="M196.288 221.267C196.288 221.267 197.764 222.161 201.279 221.903C203.599 221.732 205.07 220.775 205.07 220.775L204.728 218.547C204.728 218.547 203.318 218.953 201.66 219.285C199.827 219.65 197.172 218.812 197.172 218.812L196.288 221.267Z" fill="#BD4539"/>
<path d="M205.07 183.512C205.07 183.512 203.336 185.902 202.804 188.158C202.275 190.412 204.418 188.035 205.07 186.369C205.725 184.706 205.07 183.512 205.07 183.512Z" fill="#F6958F"/>
<path d="M233.516 175.295C233.75 176.279 234.842 180.566 234.223 189.273C233.604 197.977 233.423 208.064 233.516 212.577C233.604 217.089 234.784 221.524 234.784 221.524L226.377 220.249C226.377 220.249 227.412 217.686 225.874 212.111C224.332 206.54 219.847 185.913 220.888 178.542C221.926 171.168 233.516 175.295 233.516 175.295Z" fill="#F2B6AC"/>
<path d="M235.514 236.161C234.085 235.862 230.508 233.113 229.264 231.21C228.02 229.309 227.546 228.432 227.608 226.564C227.645 225.486 226.296 224.072 225.94 223.002L226.294 220.773L234.481 220.242C234.481 220.242 237.229 224.967 238.917 227.764C240.147 229.813 241.092 232.452 241.155 234.167C240.501 233.931 239.721 233.716 239.149 233.782C237.954 233.924 236.945 236.461 235.514 236.161Z" fill="#474647"/>
<path d="M232.129 235.437C229.047 232.818 227.627 230.999 226.594 228.635C225.559 226.273 225.94 223.004 225.94 223.004L226.117 221.901C227.766 223.326 227.645 225.485 227.608 226.563C227.546 228.429 228.02 229.306 229.264 231.209C230.508 233.112 234.085 235.861 235.514 236.16C236.946 236.461 237.953 233.924 239.149 233.785C239.721 233.719 240.501 233.931 241.155 234.168C241.176 234.752 241.098 235.231 240.891 235.537C239.43 237.723 235.211 238.057 232.129 235.437Z" fill="#BD4539"/>
<path d="M234.268 221.267C234.268 221.267 236.59 225.184 237.454 227.504C238.001 228.979 238.114 230.461 237.331 230.926C236.548 231.39 234.729 230.119 233.795 228.47C232.858 226.819 231.482 221.267 231.482 221.267H234.268Z" fill="#BD4539"/>
<path d="M235.08 221.267C235.08 221.267 233.605 222.161 230.087 221.903C227.768 221.732 226.295 220.775 226.295 220.775L226.637 218.547C226.637 218.547 228.049 218.953 229.706 219.285C231.541 219.65 234.195 218.812 234.195 218.812L235.08 221.267Z" fill="#BD4539"/>
<path d="M226.294 183.512C226.294 183.512 228.029 185.902 228.563 188.158C229.091 190.412 226.949 188.035 226.294 186.369C225.643 184.706 226.294 183.512 226.294 183.512Z" fill="#F6958F"/>
<path d="M224.906 80.764C224.906 80.764 221.003 79.236 220.756 76.779C220.477 73.982 220.756 69.376 220.756 69.376H216.932H215.493H211.669C211.669 69.376 211.88 73.974 211.669 76.779C211.483 79.243 207.519 80.764 207.519 80.764C207.519 80.764 209.771 89.361 214.21 90.469C214.601 90.703 218.864 90.359 219.253 90.122C223.691 89.015 224.906 80.764 224.906 80.764Z" fill="#F6958F"/>
<path d="M226.577 64.679C226.07 63.132 224.871 63.556 224.871 63.556C224.871 63.556 226.945 51.334 216.357 51.309C207.243 51.288 208.162 58.037 207.527 63.477C207.15 63.396 206.462 63.415 205.956 64.426C205.245 65.848 206.511 68.083 207.743 68.246C208.757 73.025 212.087 76.539 216.051 76.539C220.032 76.539 223.373 72.994 224.373 68.184C225.592 68.078 227.059 66.142 226.577 64.679Z" fill="#F2B6AC"/>
<path d="M218.902 70.527C218.244 69.343 216.255 69.357 215.741 69.381C215.222 69.357 213.234 69.343 212.576 70.527C212.238 71.138 212.198 71.969 212.198 71.969H215.613H215.868H219.283C219.283 71.97 219.242 71.139 218.902 70.527Z" fill="#E5E5E5"/>
<path d="M209.552 53.941C209.552 53.941 207.93 56.541 208.381 59.046C209.029 62.64 208.622 64.153 208.622 64.153C208.622 64.153 207.67 63.428 207.045 63.466C206.827 63.481 206.299 63.913 206.299 63.913C206.299 63.913 204.84 61.153 205.85 57.525C206.863 53.899 209.552 53.941 209.552 53.941Z" fill="#E5E5E5"/>
<path d="M222.846 53.941C222.846 53.941 224.622 56.541 224.17 59.046C223.522 62.64 223.549 64.153 223.549 64.153C223.549 64.153 224.436 63.596 224.87 63.554C225.139 63.53 225.932 63.723 225.932 63.723C225.932 63.723 227.188 61.154 226.177 57.526C225.165 53.899 222.846 53.941 222.846 53.941Z" fill="#E5E5E5"/>
<path d="M206.674 79.81C205.421 79.876 200.082 79.486 192.682 81.852C186.87 83.706 175.961 82.151 169.266 82.443C166.016 82.586 157.669 84.026 152.85 84.376C147.739 84.746 143.248 85.01 141.481 85.038C138.047 85.095 132.876 86.425 136.46 88.757C138.086 89.819 143.025 88.4 145.862 90.079C146.848 90.66 144.063 93.139 145.565 94.856C147.066 96.572 146.658 94.215 148.253 92.667C150.098 90.871 151.537 89.682 154.787 89.484C156.793 89.364 167.662 91.029 173.672 91.375C179.68 91.716 186.994 92.948 192.412 92.477C197.122 92.069 197.414 95.05 198.421 97.771C199.432 100.493 201.104 104.71 201.121 109.8C201.139 114.483 207.516 119.399 207.516 119.399L206.674 79.81Z" fill="#F2B6AC"/>
<path d="M225.548 79.81C226.801 79.876 232.139 79.486 239.541 81.852C245.352 83.706 256.261 82.151 262.957 82.443C266.206 82.586 274.555 84.026 279.374 84.376C284.482 84.746 288.975 85.01 290.741 85.038C294.175 85.095 299.345 86.425 295.763 88.757C294.136 89.819 289.197 88.4 286.357 90.079C285.376 90.66 288.16 93.139 286.657 94.856C285.154 96.572 285.562 94.215 283.97 92.667C282.123 90.871 280.685 89.682 277.435 89.484C275.429 89.364 264.56 91.029 258.549 91.375C252.54 91.716 245.226 92.948 239.808 92.477C235.099 92.069 234.808 95.05 233.798 97.771C232.791 100.493 231.117 104.71 231.099 109.8C231.084 114.483 224.705 119.399 224.705 119.399L225.548 79.81Z" fill="#F2B6AC"/>
<path d="M219.575 178.361C219.687 179.015 219.8 179.667 219.916 180.307C226.552 185.141 235.455 178.662 235.455 178.662C235.455 178.662 235.389 177.612 235.277 175.9C233.814 177.048 231.357 178.552 227.976 179.055C224.623 179.56 221.539 178.945 219.575 178.361Z" fill="#686868"/>
<path d="M203.494 179.058C199.458 178.457 196.734 176.439 195.464 175.295C195.317 176.818 195.233 177.699 195.233 177.699C195.233 177.699 201.735 185.131 211.557 179.955C211.645 179.483 211.737 178.953 211.827 178.381C209.855 178.961 206.807 179.555 203.494 179.058Z" fill="#686868"/>
<path d="M215.398 142.364C208.298 142.07 202.898 140.397 199.476 138.96C199.017 142.569 198.462 146.257 198.019 150.36C197.054 159.255 196.161 168.204 195.658 173.335C196.652 174.116 199.456 176.06 203.593 176.773C206.803 177.327 210.003 176.885 212.11 176.428C213.528 166.013 214.893 145.963 214.893 145.963C214.893 145.963 216.872 162.278 219.242 176.401C221.345 176.867 224.606 177.336 227.882 176.771C231.302 176.179 233.808 174.748 235.144 173.824C234.687 166.775 233.831 153.957 233.357 148.719C233.187 146.871 232.833 143.592 232.461 140.274C228.165 141.482 222.145 142.644 215.398 142.364Z" fill="#474647"/>
<path d="M228.872 129.464L204.812 129.611C202.801 130.1 201.169 130.804 200.197 131.804C200.041 134.219 199.779 136.575 199.476 138.959C202.898 140.397 208.298 142.068 215.398 142.362C222.144 142.641 228.165 141.48 232.459 140.272C231.875 135.058 231.252 129.747 231.252 129.747C231.252 129.747 230.357 129.627 228.872 129.464Z" fill="#CD5441"/>
<path d="M203.592 176.773C199.455 176.058 196.653 174.116 195.657 173.335C195.583 174.064 195.519 174.733 195.463 175.296C196.734 176.44 199.457 178.458 203.493 179.059C206.806 179.556 209.853 178.962 211.824 178.382C211.917 177.78 212.012 177.126 212.107 176.43C210.002 176.886 206.802 177.327 203.592 176.773Z" fill="#454545"/>
<path d="M227.879 176.773C224.606 177.336 221.341 176.868 219.238 176.403C219.347 177.062 219.461 177.714 219.574 178.361C221.538 178.945 224.622 179.559 227.976 179.057C231.355 178.554 233.812 177.051 235.275 175.902C235.236 175.292 235.189 174.59 235.14 173.825C233.805 174.749 231.299 176.182 227.879 176.773Z" fill="#454545"/>
<path d="M232.833 132.266C232.824 123.356 232.846 103.216 232.846 103.216C232.846 103.216 229.987 99.798 228.225 94.827C226.463 89.856 227.164 79.961 227.164 79.961L223.749 79.45C223.337 82.471 221.792 89.314 216.21 89.314C209.773 89.314 208.469 81.182 208.272 79.544L205.751 79.96C205.751 79.96 206.449 89.856 204.688 94.826C202.928 99.797 199.115 103.215 199.115 103.215C199.115 103.215 199.106 122.891 199.083 131.49C202.681 132.532 209.915 134.368 216.211 134.368C221.117 134.369 227.848 133.252 232.833 132.266Z" fill="#CD5441"/>
<path d="M199.076 133.61C199.072 134.529 199.029 135.852 199.025 136.06C199.025 136.06 208.366 139.943 215.954 139.943C225.704 139.943 232.848 136.922 232.848 136.922C232.843 136.623 232.84 135.32 232.838 134.548C228.152 135.687 221.793 136.922 216.211 136.922C208.993 136.922 202.406 134.858 199.076 133.61Z" fill="#454545"/>
<path d="M216.21 134.369C209.914 134.369 202.68 132.533 199.082 131.491C199.08 132.304 199.078 133.019 199.075 133.61C202.404 134.858 208.992 136.923 216.21 136.923C221.792 136.923 228.15 135.689 232.837 134.549C232.835 133.917 232.835 133.146 232.833 132.266C227.848 133.252 221.117 134.369 216.21 134.369Z" fill="#BD4539"/>
<path d="M216.21 129.492C209.914 129.492 202.68 127.656 199.082 126.615C199.08 127.428 199.078 128.143 199.075 128.731C202.404 129.981 208.992 132.044 216.21 132.044C221.792 132.044 228.15 130.809 232.837 129.671C232.835 129.041 232.835 128.271 232.833 127.389C227.848 128.376 221.117 129.492 216.21 129.492Z" fill="#BD4539"/>
<path d="M216.21 89.314C221.792 89.314 223.337 82.47 223.749 79.45L222.32 79.235C222.019 85.173 218.525 87.388 216.21 87.388C213.897 87.388 210.43 85.172 210.129 79.235L208.272 79.545C208.469 81.183 209.773 89.314 216.21 89.314Z" fill="#BD4539"/>
<path d="M215.622 95.22L209.219 100.131L210.294 102.385L215.622 98.804L214.275 109.816L217.46 110.216L218.95 95.485L215.622 95.22Z" fill="white"/>
<path d="M196.923 91.669C196.923 91.669 198.913 90.574 200.108 91.669C201.305 92.764 201.117 96.547 201.117 96.547C201.117 96.547 197.917 94.06 196.923 91.669Z" fill="#F6958F"/>
<path d="M235.455 91.669C235.455 91.669 233.463 90.574 232.269 91.669C231.075 92.764 231.261 96.547 231.261 96.547C231.261 96.547 234.458 94.06 235.455 91.669Z" fill="#F6958F"/>
<path d="M215.299 60.752C215.471 59.97 213.962 59.242 211.449 59.506C208.933 59.768 208.26 60.897 208.26 60.897C208.26 60.897 208.207 61.498 210.68 61.1C213.15 60.699 215.299 60.752 215.299 60.752Z" fill="#451312"/>
<path d="M211.598 63.853C211.788 64.836 212.204 65.578 212.526 65.513C212.85 65.451 212.958 64.607 212.768 63.629C212.577 62.65 212.16 61.906 211.837 61.971C211.512 62.032 211.406 62.877 211.598 63.853Z" fill="#601213"/>
<path d="M223.568 61.459C223.886 60.724 222.543 59.723 220.025 59.503C217.506 59.282 216.629 60.262 216.629 60.262C216.629 60.262 216.464 60.842 218.968 60.922C221.469 60.998 223.568 61.459 223.568 61.459Z" fill="#451312"/>
<path d="M219.344 63.799C219.346 64.801 219.614 65.608 219.94 65.606C220.272 65.607 220.536 64.797 220.537 63.802C220.535 62.804 220.266 61.995 219.938 61.996C219.607 61.995 219.342 62.805 219.344 63.799Z" fill="#601213"/>
</svg>
